<svg width="48" height="48" viewBox="0 0 48 48" fill="none" xmlns="http://www.w3.org/2000/svg">
<g clip-path="url(#clip0_11951_523)">
<path d="M18.6548 17.2957C18.0671 17.0881 17.4179 16.8376 17.0568 16.5544C16.9557 16.4751 16.9131 16.2875 16.9508 16.0875C16.9699 15.9859 17.0591 15.6461 17.4038 15.5423C18.0731 15.341 18.5098 15.6827 18.5576 15.7223C18.8559 15.9708 19.2993 15.9302 19.5477 15.6318C19.7961 15.3333 19.7556 14.8899 19.4571 14.6416C19.3543 14.556 18.9864 14.2767 18.4271 14.1438V13.9184C18.4271 13.5301 18.1124 13.2153 17.724 13.2153C17.3356 13.2153 17.0209 13.5301 17.0209 13.9184V14.1895C17.0133 14.1918 17.0058 14.1936 16.9982 14.1958C16.2645 14.4168 15.7168 15.0419 15.5689 15.8271C15.4324 16.5512 15.67 17.2539 16.1889 17.6609C16.609 17.9903 17.1876 18.2687 18.186 18.6216C18.8119 18.8428 18.7985 19.3479 18.7637 19.5548C18.6923 19.9795 18.3351 20.4384 17.7193 20.4426C17.0901 20.4468 16.9098 20.4183 16.4326 20.1061C16.1076 19.8934 15.6718 19.9847 15.4593 20.3096C15.2467 20.6346 15.3378 21.0704 15.6628 21.2829C16.1785 21.6202 16.5626 21.7629 17.0208 21.818V22.0722C17.0208 22.4605 17.3355 22.7753 17.7239 22.7753C18.1123 22.7753 18.4271 22.4605 18.4271 22.0722V21.7471C19.3927 21.4618 20.0107 20.6193 20.1505 19.788C20.3369 18.6794 19.7359 17.6779 18.6548 17.2957Z" fill="#0B3F64"/>
<path d="M43.273 20.9784H35.5283V9.93065C35.5283 8.2785 34.1838 6.9345 32.5312 6.9345C32.5312 6.9345 7.26759 6.93375 7.26272 6.93375C7.25784 6.93375 2.99709 6.9345 2.99709 6.9345C1.34447 6.9344 0 8.2785 0 9.93065V26.0592C0 27.7118 1.34447 29.0564 2.99709 29.0564H17.8012V36.3384C17.8012 38.9453 19.9221 41.0662 22.529 41.0662H38.9559C39.3443 41.0662 39.6591 40.7514 39.6591 40.3631C39.6591 39.9748 39.3443 39.66 38.9559 39.66H22.529C20.6975 39.66 19.2074 38.1699 19.2074 36.3384V31.3132H46.5937V36.3384C46.5937 38.1699 45.104 39.66 43.273 39.66H41.7683C41.3799 39.66 41.0652 39.9748 41.0652 40.3631C41.0652 40.7514 41.3799 41.0662 41.7683 41.0662H43.273C45.8795 41.0662 47.9999 38.9453 47.9999 36.3384V25.7053C47.9999 23.0989 45.8795 20.9784 43.273 20.9784ZM46.518 25.0022H19.2831C19.6067 23.5078 20.9388 22.3847 22.529 22.3847H43.2731C44.8627 22.3847 46.1946 23.5078 46.518 25.0022ZM23.5923 20.9784H22.529C20.3249 20.9784 18.4686 22.4943 17.9474 24.5379C17.8862 24.5396 17.8249 24.5428 17.7638 24.5428C14.1533 24.5428 11.2162 21.6056 11.2162 17.9953C11.2162 14.385 14.1533 11.4478 17.7638 11.4478C21.3741 11.4478 24.3113 14.385 24.3113 17.9953C24.3112 19.0373 24.0633 20.0605 23.5923 20.9784ZM34.1221 9.93065V13.4506C31.4537 13.1299 29.3326 11.0091 29.0115 8.34075H32.5312C33.4084 8.34065 34.1221 9.0539 34.1221 9.93065ZM1.40625 26.0591V22.5398C4.07447 22.8607 6.19547 24.9817 6.51638 27.65H2.99709C2.11987 27.6501 1.40625 26.9363 1.40625 26.0591ZM7.93162 27.6501C7.59909 24.2054 4.85091 21.4571 1.40625 21.1246V14.866C2.76422 14.737 4.041 14.2352 5.13281 13.3929C5.44022 13.1557 5.49731 12.7142 5.26003 12.4067C5.02284 12.0991 4.58119 12.0423 4.27378 12.2795C3.43059 12.9299 2.45025 13.329 1.40616 13.4527V9.93065C1.40616 9.0539 2.11978 8.34075 2.997 8.34075H6.51816C6.43463 9.04753 6.22444 9.72421 5.88956 10.3598C5.70853 10.7034 5.84044 11.1286 6.18403 11.3096C6.28856 11.3647 6.40069 11.3908 6.51103 11.3908C6.76369 11.3908 7.00791 11.2542 7.13381 11.0152C7.56928 10.1887 7.83994 9.27553 7.93097 8.34084H27.5961C27.9288 11.7855 30.6772 14.5337 34.122 14.866V20.9786H25.1366C25.5179 20.0363 25.7173 19.0234 25.7173 17.9955C25.7173 13.6098 22.1493 10.0417 17.7636 10.0417C13.3778 10.0417 9.80972 13.6098 9.80972 17.9955C9.80972 22.3812 13.3778 25.9492 17.7636 25.9492C17.776 25.9492 17.7885 25.9488 17.801 25.9488V27.6503H7.93162V27.6501ZM19.2079 29.9068V26.4084H46.5937V29.9068H19.2079Z" fill="#0B3F64"/>
<path d="M21.115 32.9289C20.7266 32.9289 20.4119 33.2437 20.4119 33.632C20.4119 34.0203 20.7266 34.3351 21.115 34.3351H24.1369C24.5253 34.3351 24.84 34.0203 24.84 33.632C24.84 33.2437 24.5253 32.9289 24.1369 32.9289H21.115Z" fill="#0B3F64"/>
<path d="M26.2808 32.9289C25.8924 32.9289 25.5776 33.2437 25.5776 33.632C25.5776 34.0203 25.8924 34.3351 26.2808 34.3351H29.3027C29.6911 34.3351 30.0058 34.0203 30.0058 33.632C30.0058 33.2437 29.6911 32.9289 29.3027 32.9289H26.2808Z" fill="#0B3F64"/>
<path d="M31.4478 32.9289C31.0593 32.9289 30.7446 33.2437 30.7446 33.632C30.7446 34.0203 31.0593 34.3351 31.4478 34.3351H34.4697C34.8581 34.3351 35.1728 34.0203 35.1728 33.632C35.1728 33.2437 34.8581 32.9289 34.4697 32.9289H31.4478Z" fill="#0B3F64"/>
<path d="M39.6357 32.9289H36.6138C36.2254 32.9289 35.9106 33.2437 35.9106 33.632C35.9106 34.0203 36.2254 34.3351 36.6138 34.3351H39.6357C40.0241 34.3351 40.3388 34.0203 40.3388 33.632C40.3388 33.2437 40.0241 32.9289 39.6357 32.9289Z" fill="#0B3F64"/>
</g>
<defs>
<clipPath id="clip0_11951_523">
<rect width="48" height="48" fill="white"/>
</clipPath>
</defs>
</svg>
