<svg width="48" height="48" viewBox="0 0 48 48" fill="none" xmlns="http://www.w3.org/2000/svg">
<g clip-path="url(#clip0_11951_2071)">
<path d="M10.7717 31.6C8.12446 31.6 5.97168 33.7528 5.97168 36.4C5.97168 39.0473 8.12446 41.2 10.7717 41.2C13.4189 41.2 15.5717 39.0473 15.5717 36.4C15.5717 33.7528 13.4188 31.6 10.7717 31.6ZM10.7717 39.6C9.00684 39.6 7.57171 38.1648 7.57171 36.4C7.57171 34.6352 9.00693 33.2001 10.7717 33.2001C12.5364 33.2001 13.9716 34.6353 13.9716 36.4C13.9716 38.1648 12.5364 39.6 10.7717 39.6Z" fill="#0B3F64"/>
<path d="M37.9716 31.6C35.3244 31.6 33.1716 33.7528 33.1716 36.4C33.1716 39.0473 35.3244 41.2 37.9716 41.2C40.6188 41.2 42.7716 39.0473 42.7716 36.4C42.7716 33.7528 40.6188 31.6 37.9716 31.6ZM37.9716 39.6C36.2068 39.6 34.7717 38.1648 34.7717 36.4C34.7717 34.6352 36.2069 33.2001 37.9716 33.2001C39.7365 33.2001 41.1716 34.6353 41.1716 36.4C41.1716 38.1648 39.7365 39.6 37.9716 39.6Z" fill="#0B3F64"/>
<path d="M47.4444 27.1672L40.2444 15.9672C40.0972 15.7383 39.8436 15.5999 39.5716 15.5999H30.7716C30.3292 15.5999 29.9717 15.9584 29.9717 16.3999V36.3999C29.9717 36.8423 30.3292 37.1999 30.7716 37.1999H33.9716V35.5998H31.5716V17.2H39.1348L45.9716 27.8352V35.6H41.9716V37.1999H46.7716C47.214 37.1999 47.5716 36.8424 47.5716 36.4V27.5999C47.5716 27.4471 47.5277 27.2959 47.4444 27.1672Z" fill="#0B3F64"/>
<path d="M34.7716 26V20.4001H41.1716V18.8H33.9716C33.5292 18.8 33.1716 19.1584 33.1716 19.6V26.8C33.1716 27.2424 33.5292 27.6 33.9716 27.6H45.9716V25.9999H34.7716V26Z" fill="#0B3F64"/>
<path d="M30.7715 10.0001H0.371502C-0.0700606 10.0001 -0.428467 10.3585 -0.428467 10.8V36.4001C-0.428467 36.8425 -0.0700606 37.2 0.371502 37.2H6.77153V35.6H1.17156V11.6H29.9716V35.6H14.7715V37.2H30.7715C31.2139 37.2 31.5715 36.8425 31.5715 36.4001V10.8C31.5715 10.3585 31.2139 10.0001 30.7715 10.0001Z" fill="#0B3F64"/>
<path d="M5.17158 32.4001H0.371582V34.0001H5.17158V32.4001Z" fill="#0B3F64"/>
<path d="M29.9716 32.4001H16.3716V34.0001H29.9716V32.4001Z" fill="#0B3F64"/>
<path d="M46.7715 32.4001H43.5715V34.0001H46.7715V32.4001Z" fill="#0B3F64"/>
<path d="M30.7715 13.1999H2.77148V14.8H30.7715V13.1999Z" fill="#0B3F64"/>
<path d="M11.5715 35.6H9.97144V37.2H11.5715V35.6Z" fill="#0B3F64"/>
<path d="M38.7717 35.6H37.1716V37.2H38.7717V35.6Z" fill="#0B3F64"/>
<path d="M13.9715 6.80002H2.77148V8.40005H13.9715V6.80002Z" fill="#0B3F64"/>
<path d="M1.17156 6.80002H-0.428467V8.40005H1.17156V6.80002Z" fill="#0B3F64"/>
</g>
<defs>
<clipPath id="clip0_11951_2071">
<rect width="48" height="48" fill="white" transform="translate(-0.428467)"/>
</clipPath>
</defs>
</svg>
