<svg width="48" height="48" viewBox="0 0 48 48" fill="none" xmlns="http://www.w3.org/2000/svg">
<g clip-path="url(#clip0_524_2092)">
<path d="M47.5536 21.3343C47.5481 19.7463 46.2776 18.3811 44.5697 18.3811L44.542 18.3809C44.4226 18.3789 44.3156 18.2932 44.2816 18.1723C43.8117 16.4967 43.1392 14.8858 42.2798 13.3747C42.2074 13.2473 42.2234 13.0853 42.3275 12.9823C42.3281 12.9817 42.3287 12.9811 42.3293 12.9805C42.8786 12.4386 43.1818 11.7065 43.1831 10.9193C43.1843 10.1228 42.8637 9.34706 42.3034 8.79066L38.6496 5.16225C38.6496 5.16216 38.6496 5.16216 38.6496 5.16216C37.4975 4.01822 35.6068 3.98578 34.4594 5.16581C34.4427 5.18306 34.4257 5.19966 34.4094 5.21494C34.3325 5.28713 34.2047 5.29584 34.0988 5.23641C32.5734 4.37925 30.9437 3.711 29.2551 3.24984C29.1334 3.21666 29.0465 3.10987 29.0438 2.99016L29.0434 2.95791C29.0326 1.32478 27.6981 0 26.066 0C26.0625 0 26.0589 0 26.0554 0L20.891 0.0180937C20.0978 0.0208125 19.3546 0.333844 18.7985 0.899531C18.2424 1.46531 17.942 2.21381 17.9528 2.99953L17.9527 3.02916C17.9508 3.14869 17.8648 3.25603 17.7435 3.29006C16.0579 3.76294 14.4329 4.44281 12.9135 5.31066C12.8081 5.37066 12.6805 5.36287 12.6029 5.29106C12.5854 5.27503 12.5684 5.25834 12.5521 5.24213C12.0075 4.68984 11.2756 4.38497 10.4913 4.38366C10.4896 4.38366 10.488 4.38366 10.4864 4.38366C9.69473 4.38366 8.92073 4.70597 8.36236 5.26819L4.73395 8.92209C3.59855 10.0655 3.56189 11.9686 4.73751 13.1122C4.7422 13.1215 4.92305 13.2682 4.80108 13.4857C3.94739 15.0074 3.28148 16.6327 2.82183 18.3164C2.79014 18.4324 2.68298 18.5282 2.5298 18.5282C0.893015 18.5391 -0.433923 19.8795 -0.428204 21.5163L-0.410204 26.6585C-0.404485 28.2926 0.917858 29.6187 2.56298 29.6187H2.57376C2.58314 29.622 2.79811 29.6003 2.86205 29.8283C3.33436 31.5117 4.01311 33.135 4.87964 34.6533C5.00114 34.8663 4.81861 35.0101 4.81383 35.0195C3.63408 36.1827 3.70992 38.0872 4.83998 39.2093L8.4938 42.8376C9.64411 43.9797 11.5347 44.0154 12.6842 42.8337C12.783 42.7317 12.8959 42.6799 13.0442 42.763C14.5698 43.6204 16.1998 44.2888 17.8888 44.7499C18.0102 44.7831 18.0969 44.8897 18.0996 45.009C18.1075 45.0487 18.0207 46.1883 18.9714 47.1358C19.5309 47.6933 20.273 47.9999 21.0624 47.9999H21.0731L26.2076 47.9819C27.8418 47.9762 29.1799 46.642 29.1904 45.0001L29.1906 44.9713C29.1925 44.8513 29.2789 44.7435 29.4011 44.7092C31.0858 44.2365 32.7101 43.557 34.2289 42.6897C34.335 42.6292 34.4634 42.6371 34.5411 42.709C35.9005 43.9678 37.6589 43.8616 38.7811 42.7315L42.4094 39.0776C43.5469 37.9322 43.5793 36.0291 42.406 34.8877L42.4042 34.886C42.3005 34.785 42.2789 34.6275 42.3495 34.5013C43.2003 32.982 43.8629 31.3639 44.3219 29.6826C44.355 29.5613 44.4615 29.4747 44.5828 29.472C44.6143 29.4655 45.7875 29.5521 46.7424 28.56C47.2884 27.9927 47.5742 27.2238 47.5715 26.4364L47.5536 21.3343ZM44.5488 28.0662C43.8122 28.083 43.161 28.5954 42.9652 29.3123C42.4842 31.0745 41.8549 32.609 40.9153 34.1755C40.6076 34.6886 40.806 35.25 41.4255 35.8959C42.0147 36.5104 41.9995 37.4948 41.4116 38.0871L37.7833 41.7409C37.2772 42.2506 36.6457 42.2117 36.6552 42.2098C36.0702 42.2089 35.7756 41.9359 35.4965 41.6772C34.9649 41.1851 34.1753 41.1012 33.5317 41.4687C32.1128 42.279 30.5953 42.9137 29.0213 43.3554C28.3044 43.5566 27.7958 44.2125 27.7847 44.9493C27.7675 45.9455 27.0151 46.5728 26.2028 46.5758L21.0681 46.5938C20.2604 46.5893 19.5276 46.0007 19.5055 44.9774C19.4887 44.2405 18.9762 43.5892 18.2591 43.3934C16.6812 42.9626 15.1585 42.3382 13.7331 41.5372C13.1131 41.1888 12.2906 41.2198 11.6757 41.8538C11.0741 42.4722 10.0802 42.4312 9.48464 41.8398L5.83083 38.2115C5.27217 37.6567 5.14683 36.6984 5.84864 35.973C6.36848 35.4363 6.47227 34.607 6.10092 33.9563C5.29139 32.5379 4.65717 31.0212 4.21598 29.4486C4.02473 28.7669 3.40026 28.2125 2.5658 28.2125C1.70573 28.2187 0.998952 27.5203 0.995952 26.6535L0.977952 21.5113C0.974952 20.6475 1.67517 19.9402 2.53533 19.9344C2.53655 19.9344 2.54639 19.9343 2.54761 19.9343C3.3082 19.9303 3.9788 19.4173 4.1783 18.6868C4.60776 17.1139 5.22989 15.5953 6.02752 14.1735C6.38648 13.5335 6.31355 12.6826 5.71786 12.1039C5.10764 11.5103 5.14373 10.505 5.73173 9.91284L9.36014 6.25894C9.6563 5.96072 10.0666 5.78981 10.4863 5.78981H10.4889C10.8947 5.79056 11.2719 5.94666 11.5515 6.23016C11.5831 6.26231 11.6157 6.29363 11.6483 6.32381C12.1796 6.81516 12.9681 6.89859 13.6107 6.53175C15.0302 5.721 16.5485 5.08584 18.1232 4.644C18.839 4.44319 19.3471 3.78834 19.3588 3.04912L19.359 2.98763C19.3532 2.57259 19.5105 2.181 19.8015 1.88494C20.0984 1.58297 20.5126 1.42547 20.9361 1.42397L26.0604 1.40625H26.0858C26.946 1.40625 27.6334 2.10994 27.6371 2.97009C27.6372 2.98744 27.6375 3.00469 27.6378 3.02203C27.6544 3.75909 28.1671 4.41066 28.8846 4.60659C30.4623 5.03737 31.9848 5.66175 33.4099 6.46256C34.045 6.81938 34.8647 6.76781 35.468 6.14578C36.0664 5.5305 37.0593 5.56481 37.6588 6.16012V6.16003L41.3126 9.78853C41.6084 10.0822 41.7775 10.4936 41.7769 10.9171C41.7763 11.3259 41.6217 11.7034 41.3417 11.9795C41.2132 12.1063 41.0973 12.2437 40.9946 12.3909C40.6873 12.8315 40.6724 13.4141 40.9475 13.8755C41.8442 15.379 42.4514 16.854 42.9277 18.5521C43.1284 19.2675 43.7831 19.7753 44.5175 19.787C45.5521 19.8056 46.1447 20.5437 46.1475 21.3393L46.1654 26.4956C46.1682 27.2919 45.5775 28.0407 44.5488 28.0662Z" fill="#0B3F64"/>
<path d="M23.5716 9.52274C15.5888 9.52274 9.09424 16.0172 9.09424 24.0001C9.09424 31.983 15.5888 38.4774 23.5716 38.4774C31.5544 38.4774 38.0489 31.983 38.0489 24.0001C38.0489 16.0172 31.5544 9.52274 23.5716 9.52274ZM23.5716 37.0712C16.3642 37.0712 10.5005 31.2075 10.5005 24.0001C10.5005 16.7927 16.3642 10.929 23.5716 10.929C30.779 10.929 36.6427 16.7927 36.6427 24.0001C36.6427 31.2075 30.779 37.0712 23.5716 37.0712Z" fill="#0B3F64"/>
<path d="M31.6416 16.7259C31.1257 16.2948 30.4728 16.0909 29.8034 16.1507C29.1338 16.2109 28.5278 16.528 28.0968 17.044L20.6075 26.0101L18.0446 23.3728C17.5761 22.8907 16.948 22.62 16.2758 22.6104C15.6041 22.6009 14.968 22.8534 14.486 23.322C14.004 23.7905 13.7332 24.4186 13.7237 25.0907C13.7141 25.7628 13.9667 26.3984 14.4352 26.8804L18.9443 31.5203C19.4153 32.0048 20.0732 32.2828 20.7489 32.2828C20.78 32.2828 20.8113 32.2823 20.8437 32.2811C21.5548 32.2543 22.2243 31.9256 22.6803 31.3794L31.9598 20.2704C32.8493 19.2055 32.7065 17.6154 31.6416 16.7259ZM30.8805 19.3691L21.6009 30.4781C21.3997 30.7192 21.1043 30.8641 20.7917 30.8759C20.4769 30.8869 20.1704 30.7643 19.9526 30.5403L15.4436 25.9004C15.2369 25.6878 15.1254 25.4074 15.1296 25.1109C15.1338 24.8143 15.2533 24.5372 15.466 24.3306C15.6748 24.1276 15.9488 24.0164 16.2394 24.0164C16.2449 24.0164 16.2503 24.0164 16.2557 24.0165C16.5522 24.0208 16.8293 24.1402 17.036 24.3529L20.1428 27.5497C20.2817 27.6924 20.475 27.7674 20.6735 27.7624C20.8726 27.7549 21.059 27.6633 21.1867 27.5104L29.1762 17.9455C29.3663 17.7179 29.6337 17.5779 29.9291 17.5515C30.2247 17.5252 30.5125 17.6153 30.7401 17.8052C31.21 18.1975 31.2729 18.8992 30.8805 19.3691Z" fill="#0B3F64"/>
<path d="M33.8052 36.4622C30.9324 38.8241 27.2981 40.1249 23.5718 40.1249C14.6804 40.1249 7.44678 32.8913 7.44678 24C7.44678 20.274 8.74737 16.6399 11.109 13.7672C11.3556 13.4673 11.3124 13.0241 11.0124 12.7775C10.7124 12.5309 10.2694 12.5742 10.0227 12.8741C7.45475 15.998 6.04053 19.9492 6.04053 24C6.04053 33.6667 13.905 41.5312 23.5718 41.5312C27.623 41.5312 31.5746 40.1167 34.6984 37.5484C34.9984 37.3018 35.0416 36.8588 34.795 36.5588C34.5484 36.2588 34.1051 36.2154 33.8052 36.4622Z" fill="#0B3F64"/>
<path d="M23.5716 6.46875C19.5196 6.46875 15.5676 7.88372 12.4433 10.4529C12.1434 10.6996 12.1002 11.1427 12.3468 11.4427C12.5934 11.7426 13.0365 11.7857 13.3366 11.5391C16.2098 9.17625 19.8447 7.875 23.5716 7.875C32.463 7.875 39.6966 15.1087 39.6966 24C39.6966 27.7263 38.3957 31.3607 36.0337 34.2337C35.7871 34.5336 35.8304 34.9767 36.1303 35.2233C36.2611 35.3309 36.4193 35.3833 36.5764 35.3833C36.7795 35.3833 36.981 35.2958 37.12 35.1267C39.6884 32.0027 41.1028 28.0512 41.1028 24C41.1028 14.3333 33.2384 6.46875 23.5716 6.46875Z" fill="#0B3F64"/>
</g>
<defs>
<clipPath id="clip0_524_2092">
<rect width="48" height="48" fill="white" transform="translate(-0.428467)"/>
</clipPath>
</defs>
</svg>
