<svg width="50" height="50" viewBox="0 0 50 50" fill="none" xmlns="http://www.w3.org/2000/svg">
<g clip-path="url(#clip0_651_133)">
<path d="M41.7969 9.28319C41.0625 8.53045 41.0625 7.31327 41.7969 6.56854C42.5312 5.82381 43.7188 5.81581 44.4453 6.56854L49.4453 11.6935C49.7969 12.0539 49.9922 12.5424 49.9922 13.0549C49.9922 13.5674 49.7969 14.0558 49.4453 14.4162L44.4453 19.5412C43.7109 20.2939 42.5234 20.2939 41.7969 19.5412C41.0703 18.7885 41.0625 17.5713 41.7969 16.8265L43.5938 14.9848L30 14.9687C28.9609 14.9687 28.125 14.1119 28.125 13.0469C28.125 11.9818 28.9609 11.125 30 11.125H43.6016L41.7969 9.28319ZM8.20312 36.1894L6.40625 38.0312H20C21.0391 38.0312 21.875 38.8881 21.875 39.9531C21.875 41.0182 21.0391 41.875 20 41.875H6.39844L8.19531 43.7168C8.92969 44.4695 8.92969 45.6867 8.19531 46.4314C7.46094 47.1762 6.27344 47.1842 5.54688 46.4314L0.546875 41.3144C0.195312 40.9541 0 40.4656 0 39.9531C0 39.4406 0.195312 38.9521 0.546875 38.5918L5.54688 33.4668C6.28125 32.714 7.46875 32.714 8.19531 33.4668C8.92188 34.2195 8.92969 35.4367 8.19531 36.1814L8.20312 36.1894ZM7.5 11.125H26.3984C26.1094 11.7015 25.9375 12.3502 25.9375 13.0469C25.9375 15.3451 27.7578 17.2109 30 17.2109H39.1719C38.8594 18.5723 39.2188 20.0537 40.25 21.1187C41.8359 22.7443 44.4062 22.7443 45.9922 21.1187L47.5 19.5732V36.75C47.5 39.5767 45.2578 41.875 42.5 41.875H23.6016C23.8906 41.2984 24.0625 40.6498 24.0625 39.9531C24.0625 37.6549 22.2422 35.789 20 35.789H10.8281C11.1406 34.4277 10.7812 32.9463 9.75 31.8812C8.16406 30.2556 5.59375 30.2556 4.00781 31.8812L2.5 33.4267V16.25C2.5 13.4232 4.74219 11.125 7.5 11.125ZM12.5 16.25H7.5V21.375C10.2578 21.375 12.5 19.0767 12.5 16.25ZM42.5 31.625C39.7422 31.625 37.5 33.9232 37.5 36.75H42.5V31.625ZM25 34.1875C26.9891 34.1875 28.8968 33.3776 30.3033 31.9359C31.7098 30.4942 32.5 28.5388 32.5 26.5C32.5 24.4611 31.7098 22.5058 30.3033 21.0641C28.8968 19.6224 26.9891 18.8125 25 18.8125C23.0109 18.8125 21.1032 19.6224 19.6967 21.0641C18.2902 22.5058 17.5 24.4611 17.5 26.5C17.5 28.5388 18.2902 30.4942 19.6967 31.9359C21.1032 33.3776 23.0109 34.1875 25 34.1875Z" fill="#0B3F64"/>
</g>
<defs>
<clipPath id="clip0_651_133">
<rect width="50" height="41" fill="white" transform="translate(0 6)"/>
</clipPath>
</defs>
</svg>
