<svg width="48" height="48" viewBox="0 0 48 48" fill="none" xmlns="http://www.w3.org/2000/svg">
<g clip-path="url(#clip0_651_191)">
<path d="M20.4567 40.2759C20.0451 40.1927 19.5907 40.3982 19.4076 40.8365C19.2417 41.2357 19.3669 41.7103 19.7529 41.9751C20.2638 42.3091 20.9171 42.0868 21.1394 41.5539C21.3679 40.9966 21.0291 40.3919 20.4567 40.2759Z" fill="#0B3F64"/>
<path d="M47.2288 26.7374C46.942 24.7244 45.208 23.1716 43.1173 23.1716H42.7848C42.7848 22.5249 42.7848 17.9839 42.7848 17.3288C42.7848 15.4981 41.2958 14.0087 39.4651 14.0087H38.8385L40.5582 11.5437C41.6327 10.0038 41.2236 7.8849 39.653 6.85548C29.1511 -0.0270869 29.8689 0.409071 29.4272 0.233656C28.0104 -0.329943 26.3273 0.145399 25.4388 1.45204C25.4249 1.47255 22.931 5.14088 22.8135 5.31373L19.5099 3.1487C18.1956 2.28737 16.4081 2.64406 15.5248 3.94337L8.6814 14.0087H4.70581C2.52429 14.0087 0.75 15.7833 0.75 17.9645C0.75 17.9931 0.751465 18.0213 0.752197 18.0502C0.751465 18.0645 0.75 18.0788 0.75 18.093V43.9644C0.75 46.1898 2.56055 48 4.78564 48H38.7495C40.9746 48 42.7848 46.1898 42.7848 43.9644V41.7195H42.9741C45.3435 41.7195 47.2709 39.7918 47.2709 37.4224C47.2709 26.0548 47.2917 26.9396 47.2288 26.7374ZM43.1173 25.0466C44.3738 25.0466 45.3959 26.0687 45.3959 27.3252C45.3904 27.3721 45.4501 28.0543 45.0604 28.6956C44.2775 29.9824 42.8496 29.7953 42.7852 29.8107V25.0466H43.1173ZM24.3871 6.33436C27.2146 7.99513 30.8599 7.2953 32.8491 4.63881L34.886 5.97365C33.3307 8.66017 33.9979 12.1351 36.5468 14.0164L34.983 16.2576H17.6404C17.822 15.9899 23.4943 7.6476 24.3871 6.33436ZM26.9897 2.50636C27.4325 1.85487 28.329 1.67579 28.9878 2.10792L31.277 3.60829C29.8759 5.38148 27.4054 5.86269 25.444 4.7798L26.9897 2.50636ZM38.625 8.42396C39.3109 8.87331 39.4896 9.79835 39.0205 10.4707L37.6205 12.4772C35.9132 11.1834 35.4485 8.84657 36.4574 7.00307L38.625 8.42396ZM17.0757 4.99733C17.3873 4.53883 18.0183 4.41322 18.4819 4.71718L21.7588 6.86464L15.3728 16.2576H9.42004L17.0757 4.99733ZM4.70581 15.8841H7.40625C6.98145 16.5619 6.73535 16.7282 6.71265 17.1434C6.68298 17.6807 7.11108 18.133 7.64868 18.133H35.4723C35.7788 18.133 36.0659 17.9828 36.241 17.7316L37.53 15.8841H39.4651C40.2616 15.8841 40.9098 16.5322 40.9098 17.3288V20.0449H4.70581C1.901 20.0449 2.00793 15.8841 4.70581 15.8841ZM40.9098 43.9644C40.9098 45.1557 39.9404 46.1247 38.7495 46.1247H4.78564C3.59436 46.1247 2.62537 45.1557 2.62537 43.9644V42.133H16.5234C17.0409 42.133 17.4609 41.7129 17.4609 41.1955C17.4609 40.6776 17.0409 40.2576 16.5234 40.2576H2.62537V21.3329C3.02197 21.5775 3.46326 21.7482 3.90564 21.8386C4.88159 22.0397 4.43591 21.854 40.9098 21.9199V29.8107H37.4784C34.1953 29.8107 31.5242 32.4818 31.5242 35.7649C31.5242 39.0484 34.1953 41.7195 37.4784 41.7195H40.9098V43.9644ZM45.3959 37.4224C45.3959 38.7576 44.3093 39.8441 42.9741 39.8441H37.4784C35.2295 39.8441 33.3995 38.0142 33.3995 35.7649C33.3995 33.516 35.2295 31.6861 37.4784 31.6861H43.0818C43.9292 31.6861 44.7323 31.4286 45.3959 30.9873V37.4224Z" fill="#0B3F64"/>
<path d="M37.8081 32.4672C35.9866 32.4672 34.5049 33.9489 34.5049 35.7704C34.5049 37.5919 35.9869 39.0736 37.8081 39.0736C39.6296 39.0736 41.1117 37.5919 41.1117 35.7704C41.1117 33.9489 39.6296 32.4672 37.8081 32.4672ZM37.8081 37.1986C37.0208 37.1986 36.3802 36.5577 36.3802 35.7704C36.3802 34.983 37.0208 34.3422 37.8081 34.3422C38.5958 34.3422 39.2363 34.983 39.2363 35.7704C39.2363 36.5577 38.5958 37.1986 37.8081 37.1986Z" fill="#0B3F64"/>
</g>
<defs>
<clipPath id="clip0_651_191">
<rect width="48" height="48" fill="white"/>
</clipPath>
</defs>
</svg>
