<svg width="49" height="48" viewBox="0 0 49 48" fill="none" xmlns="http://www.w3.org/2000/svg">
<g clip-path="url(#clip0_104_4894)">
<path d="M39.4535 41.8065L37.6612 36.4289C37.0349 34.5515 35.437 33.1657 33.4891 32.8111L28.3152 31.8697V31.4687C29.2155 30.9461 29.999 30.247 30.623 29.4194H32.1861C33.4666 29.4194 34.5087 28.3773 34.5087 27.0968V17.8065C34.5087 12.257 29.9936 7.74194 24.4442 7.74194C18.8948 7.74194 14.3797 12.257 14.3797 17.8065V23.2258C14.3797 24.7185 15.4411 25.9672 16.8486 26.2583C17.2829 28.4834 18.6733 30.3662 20.5732 31.4687V31.8697L15.3985 32.8111C13.4514 33.1657 11.8527 34.5515 11.2271 36.4289L10.9175 37.3587L8.28057 34.7218C7.97863 34.4199 7.97863 33.9283 8.28057 33.6263L11.3386 30.569L5.59876 24.8292L2.14276 28.2852C1.11928 29.3087 0.555664 30.6697 0.555664 32.1174C0.555664 33.5652 1.11928 34.9254 2.14276 35.9489L12.606 46.4121C13.6295 47.4356 14.9905 48 16.4382 48C17.886 48 19.2462 47.4356 20.2457 46.4354L24.0168 42.9801L22.8408 41.8065H39.4535ZM32.9603 27.0968C32.9603 27.5241 32.6127 27.871 32.1861 27.871H31.535C31.7595 27.3592 31.9299 26.8196 32.0398 26.2583C32.3711 26.1894 32.6762 26.0578 32.9603 25.8921V27.0968ZM32.1861 24.559V21.8927C32.6468 22.1613 32.9603 22.6552 32.9603 23.2258C32.9603 23.7964 32.6468 24.2903 32.1861 24.559ZM16.7022 24.559C16.2416 24.2903 15.9281 23.7964 15.9281 23.2258C15.9281 22.6552 16.2416 22.1613 16.7022 21.8927V24.559ZM16.7022 19.3548V20.239C16.4266 20.311 16.1681 20.4194 15.9281 20.5595V17.8065C15.9281 13.111 19.7487 9.29033 24.4442 9.29033C29.1397 9.29033 32.9603 13.111 32.9603 17.8065V20.5595C32.7203 20.4194 32.4617 20.3102 32.1861 20.239V19.3548H31.4119C29.1226 19.3548 26.9704 18.463 25.3508 16.8441L24.4442 15.9376L23.5376 16.8441C21.918 18.463 19.7657 19.3548 17.4764 19.3548H16.7022ZM18.2506 24.7742V20.8738C20.5755 20.6988 22.7433 19.7396 24.4442 18.1223C26.1451 19.7396 28.3128 20.6996 30.6377 20.8738V24.7742C30.6377 25.903 30.3296 26.959 29.8001 27.871H24.4442V29.4194H28.5273C27.4357 30.3801 26.0088 30.9677 24.4442 30.9677C21.0292 30.9677 18.2506 28.1892 18.2506 24.7742ZM26.7668 32.1592V32.1956L24.4442 34.5182L22.1216 32.1956V32.1592C22.8555 32.3899 23.6351 32.5161 24.4442 32.5161C25.2532 32.5161 26.0328 32.3899 26.7668 32.1592ZM12.695 36.9182C13.1417 35.5773 14.2837 34.5871 15.6749 34.3332L21.0865 33.3499L24.4442 36.7076L27.8011 33.3507L33.2119 34.3339C34.6032 34.5879 35.7451 35.5773 36.1918 36.919L37.3059 40.2581H21.2924L18.277 37.2426L14.9262 40.2736C14.6344 40.567 14.1242 40.567 13.8315 40.2736L12.1407 38.5827L12.695 36.9182ZM5.59799 27.0186L9.14844 30.569L8.30766 31.4098L4.75721 27.8594L5.59799 27.0186ZM19.1735 45.319C18.4426 46.0483 17.4702 46.4516 16.4367 46.4516C15.4031 46.4516 14.4308 46.0483 13.6991 45.3174L3.23592 34.855C2.50508 34.1241 2.1025 33.1517 2.1025 32.1182C2.1025 31.0839 2.50508 30.1115 3.23592 29.3807L3.66173 28.9548L7.21218 32.5053L7.18431 32.5332C6.27928 33.439 6.27928 34.9123 7.18431 35.8181L12.7361 41.3698C13.175 41.808 13.758 42.0503 14.3789 42.0503C14.9998 42.0503 15.5828 41.8088 15.9931 41.3969L16.0511 41.345L19.6179 44.9118L19.1735 45.319ZM20.7606 43.8635L17.2016 40.3045L18.2243 39.3801L21.7771 42.9329L20.7606 43.8635Z" fill="url(#paint0_linear_104_4894)"/>
<path d="M46.1222 0H35.2835C34.003 0 32.9609 1.04206 32.9609 2.32258V8.51613C32.9609 9.79665 34.003 10.8387 35.2835 10.8387H37.3514L36.5509 15.5079L44.0218 10.8387H46.1222C47.4027 10.8387 48.4448 9.79665 48.4448 8.51613V2.32258C48.4448 1.04206 47.4027 0 46.1222 0ZM46.8964 8.51613C46.8964 8.94271 46.5488 9.29032 46.1222 9.29032H43.5775L38.6605 12.3631L39.1878 9.29032H35.2835C34.8569 9.29032 34.5093 8.94271 34.5093 8.51613V2.32258C34.5093 1.896 34.8569 1.54839 35.2835 1.54839H46.1222C46.5488 1.54839 46.8964 1.896 46.8964 2.32258V8.51613Z" fill="url(#paint1_linear_104_4894)"/>
<path d="M45.3479 3.0968H36.0576V4.64519H45.3479V3.0968Z" fill="url(#paint2_linear_104_4894)"/>
<path d="M42.2512 6.19354H36.0576V7.74193H42.2512V6.19354Z" fill="url(#paint3_linear_104_4894)"/>
<path d="M45.3482 6.19354H43.7998V7.74193H45.3482V6.19354Z" fill="url(#paint4_linear_104_4894)"/>
<path d="M24.445 2.32257C14.3293 2.32257 5.61579 9.31973 3.3505 19.08L1.88341 16.6343L0.555664 17.431L3.27695 21.9654L7.81141 19.2441L7.01476 17.9164L4.9167 19.1752C7.11076 10.2464 15.1399 3.87096 24.445 3.87096C26.4788 3.87096 28.4855 4.17289 30.4093 4.76902L30.8677 3.29031C28.7951 2.64773 26.6344 2.32257 24.445 2.32257Z" fill="url(#paint5_linear_104_4894)"/>
<path d="M48.0682 17.1422L43.5338 14.4209L40.8133 18.9561L42.141 19.7528L43.4959 17.4944C44.2089 19.5809 44.5735 21.7634 44.5735 24C44.5735 28.6041 42.9787 33.1053 40.084 36.6735L41.2863 37.649C44.4048 33.8059 46.1219 28.9579 46.1219 24C46.1219 21.6317 45.7402 19.3192 44.9962 17.105L47.2716 18.4699L48.0682 17.1422Z" fill="url(#paint6_linear_104_4894)"/>
</g>
<defs>
<linearGradient id="paint0_linear_104_4894" x1="39.4535" y1="48.0012" x2="0.555664" y2="48.0012" gradientUnits="userSpaceOnUse">
<stop stop-color="#0B3F64" stop-opacity="0.35"/>
<stop offset="1" stop-color="#0B3F64"/>
</linearGradient>
<linearGradient id="paint1_linear_104_4894" x1="48.4448" y1="15.5083" x2="32.9609" y2="15.5083" gradientUnits="userSpaceOnUse">
<stop stop-color="#0B3F64" stop-opacity="0.35"/>
<stop offset="1" stop-color="#0B3F64"/>
</linearGradient>
<linearGradient id="paint2_linear_104_4894" x1="45.3479" y1="4.64524" x2="36.0576" y2="4.64524" gradientUnits="userSpaceOnUse">
<stop stop-color="#0B3F64" stop-opacity="0.35"/>
<stop offset="1" stop-color="#0B3F64"/>
</linearGradient>
<linearGradient id="paint3_linear_104_4894" x1="42.2512" y1="7.74198" x2="36.0576" y2="7.74198" gradientUnits="userSpaceOnUse">
<stop stop-color="#0B3F64" stop-opacity="0.35"/>
<stop offset="1" stop-color="#0B3F64"/>
</linearGradient>
<linearGradient id="paint4_linear_104_4894" x1="45.3482" y1="7.74198" x2="43.7998" y2="7.74198" gradientUnits="userSpaceOnUse">
<stop stop-color="#0B3F64" stop-opacity="0.35"/>
<stop offset="1" stop-color="#0B3F64"/>
</linearGradient>
<linearGradient id="paint5_linear_104_4894" x1="30.8677" y1="21.966" x2="0.555664" y2="21.966" gradientUnits="userSpaceOnUse">
<stop stop-color="#0B3F64" stop-opacity="0.35"/>
<stop offset="1" stop-color="#0B3F64"/>
</linearGradient>
<linearGradient id="paint6_linear_104_4894" x1="48.0682" y1="37.6497" x2="40.084" y2="37.6497" gradientUnits="userSpaceOnUse">
<stop stop-color="#0B3F64" stop-opacity="0.35"/>
<stop offset="1" stop-color="#0B3F64"/>
</linearGradient>
<clipPath id="clip0_104_4894">
<rect width="48" height="48" fill="white" transform="translate(0.5)"/>
</clipPath>
</defs>
</svg>
