<svg width="49" height="48" viewBox="0 0 49 48" fill="none" xmlns="http://www.w3.org/2000/svg">
<g clip-path="url(#clip0_104_6534)">
<g clip-path="url(#clip1_104_6534)">
<path d="M42.4874 48C42.2914 48 42.0954 47.942 41.9254 47.828L35.0714 43.164L28.2174 47.828C27.8754 48.062 27.4234 48.058 27.0814 47.82C26.7394 47.582 26.5834 47.158 26.6854 46.756L28.8074 38.38L22.4234 32.928C22.1134 32.662 21.9954 32.234 22.1254 31.848C22.2554 31.462 22.6074 31.192 23.0154 31.17L31.1814 30.708L34.1354 22.658C34.4254 21.87 35.7234 21.87 36.0114 22.658L38.9654 30.708L47.1314 31.17C47.5394 31.192 47.8914 31.462 48.0214 31.848C48.1514 32.234 48.0334 32.662 47.7234 32.928L41.3394 38.38L43.4614 46.756C43.5634 47.158 43.4054 47.582 43.0654 47.82C42.8894 47.94 42.6894 48 42.4874 48ZM35.0714 40.954C35.2674 40.954 35.4634 41.012 35.6334 41.126L40.8714 44.69L39.2454 38.268C39.1534 37.9 39.2774 37.51 39.5654 37.262L44.5274 33.024L38.1934 32.664C37.7954 32.642 37.4474 32.384 37.3114 32.01L35.0714 25.902L32.8314 32.01C32.6954 32.384 32.3474 32.64 31.9494 32.664L25.6154 33.024L30.5774 37.262C30.8674 37.51 30.9914 37.9 30.8974 38.268L29.2714 44.69L34.5094 41.126C34.6794 41.01 34.8754 40.954 35.0714 40.954Z" fill="url(#paint0_linear_104_6534)"/>
<path d="M21.0713 40H1.07129C0.519289 40 0.0712891 39.552 0.0712891 39V31C0.0712891 27.14 3.21129 24 7.07129 24H27.0713C27.6233 24 28.0713 24.448 28.0713 25C28.0713 25.552 27.6233 26 27.0713 26H7.07129C4.31529 26 2.07129 28.244 2.07129 31V38H21.0713C21.6233 38 22.0713 38.448 22.0713 39C22.0713 39.552 21.6233 40 21.0713 40Z" fill="url(#paint1_linear_104_6534)"/>
<path d="M16.0713 20C12.2113 20 9.07129 16.86 9.07129 13C9.07129 12.448 9.51929 12 10.0713 12C13.5073 12 15.0713 9.408 15.0713 7C15.0713 6.448 15.5193 6 16.0713 6C16.6233 6 17.0713 6.448 17.0713 7C17.0713 9.408 18.6353 12 22.0713 12C22.6233 12 23.0713 12.448 23.0713 13C23.0713 16.86 19.9313 20 16.0713 20ZM11.1573 13.93C11.5953 16.244 13.6333 18 16.0713 18C18.5093 18 20.5473 16.244 20.9853 13.93C18.6833 13.63 17.0333 12.376 16.0713 10.738C15.1093 12.376 13.4593 13.63 11.1573 13.93Z" fill="url(#paint2_linear_104_6534)"/>
<path d="M24.0713 20H8.07129C6.41729 20 5.07129 18.654 5.07129 17V11C5.07129 4.934 10.0053 0 16.0713 0C22.1373 0 27.0713 4.934 27.0713 11V17C27.0713 18.654 25.7253 20 24.0713 20ZM16.0713 2C11.1093 2 7.07129 6.038 7.07129 11V17C7.07129 17.552 7.51929 18 8.07129 18H24.0713C24.6233 18 25.0713 17.552 25.0713 17V11C25.0713 6.038 21.0333 2 16.0713 2Z" fill="url(#paint3_linear_104_6534)"/>
</g>
</g>
<defs>
<linearGradient id="paint0_linear_104_6534" x1="48.0736" y1="48.0018" x2="22.0732" y2="48.0018" gradientUnits="userSpaceOnUse">
<stop stop-color="#0B3F64" stop-opacity="0.35"/>
<stop offset="1" stop-color="#0B3F64"/>
</linearGradient>
<linearGradient id="paint1_linear_104_6534" x1="28.0713" y1="40.0005" x2="0.0712891" y2="40.0005" gradientUnits="userSpaceOnUse">
<stop stop-color="#0B3F64" stop-opacity="0.35"/>
<stop offset="1" stop-color="#0B3F64"/>
</linearGradient>
<linearGradient id="paint2_linear_104_6534" x1="23.0713" y1="20.0004" x2="9.07129" y2="20.0004" gradientUnits="userSpaceOnUse">
<stop stop-color="#0B3F64" stop-opacity="0.35"/>
<stop offset="1" stop-color="#0B3F64"/>
</linearGradient>
<linearGradient id="paint3_linear_104_6534" x1="27.0713" y1="20.0006" x2="5.07129" y2="20.0006" gradientUnits="userSpaceOnUse">
<stop stop-color="#0B3F64" stop-opacity="0.35"/>
<stop offset="1" stop-color="#0B3F64"/>
</linearGradient>
<clipPath id="clip0_104_6534">
<rect width="48" height="48" fill="white" transform="translate(0.5)"/>
</clipPath>
<clipPath id="clip1_104_6534">
<rect width="48" height="48" fill="white" transform="translate(0.0712891)"/>
</clipPath>
</defs>
</svg>
