<svg width="49" height="48" viewBox="0 0 49 48" fill="none" xmlns="http://www.w3.org/2000/svg">
<g clip-path="url(#clip0_104_4929)">
<g clip-path="url(#clip1_104_4929)">
<path d="M48.0531 21.3343C48.0476 19.7463 46.7771 18.3811 45.0692 18.3811L45.0415 18.3809C44.9222 18.3789 44.8151 18.2932 44.7812 18.1723C44.3112 16.4967 43.6387 14.8858 42.7793 13.3747C42.7069 13.2473 42.7229 13.0853 42.827 12.9823C42.8276 12.9817 42.8282 12.9811 42.8288 12.9805C43.3781 12.4386 43.6813 11.7065 43.6826 10.9193C43.6838 10.1228 43.3632 9.34706 42.8029 8.79066L39.1491 5.16225C39.1491 5.16216 39.1491 5.16216 39.1491 5.16216C37.997 4.01822 36.1063 3.98578 34.9589 5.16581C34.9422 5.18306 34.9252 5.19966 34.9089 5.21494C34.832 5.28713 34.7043 5.29584 34.5983 5.23641C33.0729 4.37925 31.4432 3.711 29.7546 3.24984C29.6329 3.21666 29.546 3.10987 29.5433 2.99016L29.5429 2.95791C29.5322 1.32478 28.1976 0 26.5655 0C26.5621 0 26.5584 0 26.5549 0L21.3905 0.0180937C20.5973 0.0208125 19.8542 0.333844 19.298 0.899531C18.7419 1.46531 18.4415 2.21381 18.4523 2.99953L18.4522 3.02916C18.4503 3.14869 18.3643 3.25603 18.2431 3.29006C16.5574 3.76294 14.9324 4.44281 13.413 5.31066C13.3076 5.37066 13.18 5.36287 13.1024 5.29106C13.0849 5.27503 13.0679 5.25834 13.0517 5.24213C12.507 4.68984 11.7752 4.38497 10.9908 4.38366C10.9892 4.38366 10.9876 4.38366 10.9859 4.38366C10.1942 4.38366 9.42025 4.70597 8.86187 5.26819L5.23346 8.92209C4.09806 10.0655 4.0614 11.9686 5.23703 13.1122C5.24171 13.1215 5.42256 13.2682 5.30059 13.4857C4.4469 15.0074 3.781 16.6327 3.32134 18.3164C3.28965 18.4324 3.1825 18.5282 3.02931 18.5282C1.39253 18.5391 0.0655887 19.8795 0.0713075 21.5163L0.0893075 26.6585C0.0950262 28.2926 1.41737 29.6187 3.0625 29.6187H3.07328C3.08265 29.622 3.29762 29.6003 3.36156 29.8283C3.83387 31.5117 4.51262 33.135 5.37915 34.6533C5.50065 34.8663 5.31812 35.0101 5.31334 35.0195C4.13359 36.1827 4.20943 38.0872 5.3395 39.2093L8.99331 42.8376C10.1436 43.9797 12.0342 44.0154 13.1837 42.8337C13.2826 42.7317 13.3954 42.6799 13.5437 42.763C15.0693 43.6204 16.6993 44.2888 18.3883 44.7499C18.5097 44.7831 18.5964 44.8897 18.5991 45.009C18.607 45.0487 18.5202 46.1883 19.4709 47.1358C20.0304 47.6933 20.7725 47.9999 21.5619 47.9999H21.5726L26.7071 47.9819C28.3413 47.9762 29.6794 46.642 29.6899 45.0001L29.6901 44.9713C29.692 44.8513 29.7784 44.7435 29.9006 44.7092C31.5853 44.2365 33.2096 43.557 34.7284 42.6897C34.8346 42.6292 34.9629 42.6371 35.0406 42.709C36.4 43.9678 38.1584 43.8616 39.2806 42.7315L42.9089 39.0776C44.0464 37.9322 44.0788 36.0291 42.9055 34.8877L42.9037 34.886C42.8 34.785 42.7784 34.6275 42.8491 34.5013C43.6998 32.982 44.3624 31.3639 44.8214 29.6826C44.8545 29.5613 44.961 29.4747 45.0823 29.472C45.1138 29.4655 46.2871 29.5521 47.2419 28.56C47.7879 27.9927 48.0737 27.2238 48.071 26.4364L48.0531 21.3343ZM45.0483 28.0662C44.3117 28.083 43.6605 28.5954 43.4647 29.3123C42.9837 31.0745 42.3544 32.609 41.4148 34.1755C41.1071 34.6886 41.3056 35.25 41.925 35.8959C42.5142 36.5104 42.499 37.4948 41.9111 38.0871L38.2828 41.7409C37.7767 42.2506 37.1452 42.2117 37.1547 42.2098C36.5697 42.2089 36.2751 41.9359 35.996 41.6772C35.4644 41.1851 34.6748 41.1012 34.0312 41.4687C32.6123 42.279 31.0948 42.9137 29.5208 43.3554C28.8039 43.5566 28.2953 44.2125 28.2842 44.9493C28.267 45.9455 27.5147 46.5728 26.7023 46.5758L21.5676 46.5938C20.7599 46.5893 20.0271 46.0007 20.005 44.9774C19.9882 44.2405 19.4757 43.5892 18.7586 43.3934C17.1807 42.9626 15.658 42.3382 14.2326 41.5372C13.6127 41.1888 12.7901 41.2198 12.1752 41.8538C11.5736 42.4722 10.5797 42.4312 9.98415 41.8398L6.33034 38.2115C5.77168 37.6567 5.64634 36.6984 6.34815 35.973C6.868 35.4363 6.97178 34.607 6.60043 33.9563C5.7909 32.5379 5.15668 31.0212 4.7155 29.4486C4.52425 28.7669 3.89978 28.2125 3.06531 28.2125C2.20525 28.2187 1.49846 27.5203 1.49546 26.6535L1.47746 21.5113C1.47446 20.6475 2.17468 19.9402 3.03484 19.9344C3.03606 19.9344 3.0459 19.9343 3.04712 19.9343C3.80771 19.9303 4.47831 19.4173 4.67781 18.6868C5.10728 17.1139 5.7294 15.5953 6.52703 14.1735C6.886 13.5335 6.81306 12.6826 6.21737 12.1039C5.60715 11.5103 5.64325 10.505 6.23125 9.91284L9.85965 6.25894C10.1558 5.96072 10.5662 5.78981 10.9858 5.78981H10.9884C11.3942 5.79056 11.7714 5.94666 12.051 6.23016C12.0827 6.26231 12.1152 6.29363 12.1478 6.32381C12.6791 6.81516 13.4676 6.89859 14.1102 6.53175C15.5297 5.721 17.048 5.08584 18.6227 4.644C19.3385 4.44319 19.8467 3.78834 19.8583 3.04912L19.8585 2.98763C19.8527 2.57259 20.01 2.181 20.301 1.88494C20.5979 1.58297 21.0122 1.42547 21.4356 1.42397L26.5599 1.40625H26.5853C27.4455 1.40625 28.1329 2.10994 28.1366 2.97009C28.1367 2.98744 28.137 3.00469 28.1373 3.02203C28.1539 3.75909 28.6667 4.41066 29.3841 4.60659C30.9618 5.03737 32.4843 5.66175 33.9094 6.46256C34.5445 6.81938 35.3642 6.76781 35.9675 6.14578C36.5659 5.5305 37.5588 5.56481 38.1583 6.16012V6.16003L41.8121 9.78853C42.1079 10.0822 42.277 10.4936 42.2764 10.9171C42.2758 11.3259 42.1212 11.7034 41.8412 11.9795C41.7127 12.1063 41.5968 12.2437 41.4941 12.3909C41.1868 12.8315 41.1719 13.4141 41.447 13.8755C42.3437 15.379 42.9509 16.854 43.4272 18.5521C43.6279 19.2675 44.2826 19.7753 45.017 19.787C46.0516 19.8056 46.6442 20.5437 46.647 21.3393L46.6649 26.4956C46.6677 27.2919 46.0771 28.0407 45.0483 28.0662Z" fill="url(#paint0_linear_104_4929)"/>
<path d="M24.0711 9.52277C16.0883 9.52277 9.59375 16.0172 9.59375 24.0001C9.59375 31.983 16.0883 38.4775 24.0711 38.4775C32.0539 38.4775 38.5484 31.983 38.5484 24.0001C38.5484 16.0172 32.0539 9.52277 24.0711 9.52277ZM24.0711 37.0712C16.8637 37.0712 11 31.2075 11 24.0001C11 16.7927 16.8637 10.929 24.0711 10.929C31.2785 10.929 37.1422 16.7927 37.1422 24.0001C37.1422 31.2075 31.2785 37.0712 24.0711 37.0712Z" fill="url(#paint1_linear_104_4929)"/>
<path d="M32.1409 16.7259C31.625 16.2948 30.9721 16.0909 30.3026 16.1507C29.6331 16.2109 29.0271 16.5281 28.5961 17.044L21.1068 26.0101L18.5439 23.3729C18.0754 22.8907 17.4473 22.62 16.7751 22.6104C16.1034 22.6009 15.4673 22.8535 14.9853 23.322C14.5032 23.7905 14.2325 24.4186 14.2229 25.0907C14.2134 25.7628 14.466 26.3984 14.9345 26.8804L19.4436 31.5203C19.9146 32.0049 20.5724 32.2828 21.2482 32.2828C21.2793 32.2828 21.3106 32.2823 21.3429 32.2812C22.054 32.2543 22.7236 31.9257 23.1796 31.3795L32.4591 20.2705C33.3486 19.2056 33.2058 17.6154 32.1409 16.7259ZM31.3797 19.3692L22.1002 30.4782C21.899 30.7192 21.6036 30.8641 21.2909 30.8759C20.9762 30.8869 20.6696 30.7644 20.4519 30.5403L15.9429 25.9004C15.7361 25.6878 15.6247 25.4074 15.6289 25.1109C15.6331 24.8143 15.7525 24.5372 15.9653 24.3306C16.174 24.1276 16.4481 24.0164 16.7387 24.0164C16.7441 24.0164 16.7496 24.0164 16.7549 24.0165C17.0515 24.0208 17.3286 24.1402 17.5353 24.3529L20.6421 27.5497C20.7809 27.6925 20.9742 27.7675 21.1728 27.7624C21.3718 27.7549 21.5583 27.6633 21.686 27.5104L29.6754 17.9456C29.8656 17.7179 30.1329 17.578 30.4284 17.5515C30.7239 17.5252 31.0118 17.6153 31.2394 17.8052C31.7093 18.1976 31.7722 18.8992 31.3797 19.3692Z" fill="url(#paint2_linear_104_4929)"/>
<path d="M34.3048 36.4622C31.4319 38.8242 27.7976 40.1249 24.0713 40.1249C15.1799 40.1249 7.94629 32.8914 7.94629 24C7.94629 20.274 9.24688 16.6399 11.6085 13.7672C11.8551 13.4673 11.8119 13.0242 11.5119 12.7775C11.2119 12.5309 10.7689 12.5743 10.5223 12.8742C7.95426 15.998 6.54004 19.9492 6.54004 24C6.54004 33.6667 14.4045 41.5312 24.0713 41.5312C28.1225 41.5312 32.0741 40.1167 35.1979 37.5484C35.4979 37.3018 35.5411 36.8588 35.2945 36.5588C35.0479 36.2589 34.6047 36.2155 34.3048 36.4622Z" fill="url(#paint3_linear_104_4929)"/>
<path d="M24.0714 6.46875C20.0194 6.46875 16.0674 7.88372 12.9431 10.4529C12.6432 10.6996 12.5999 11.1427 12.8466 11.4427C13.0932 11.7426 13.5362 11.7857 13.8363 11.5391C16.7096 9.17625 20.3444 7.875 24.0714 7.875C32.9627 7.875 40.1964 15.1087 40.1964 24C40.1964 27.7263 38.8955 31.3607 36.5335 34.2337C36.2869 34.5336 36.3301 34.9767 36.63 35.2233C36.7609 35.3309 36.9191 35.3833 37.0762 35.3833C37.2792 35.3833 37.4807 35.2958 37.6197 35.1267C40.1881 32.0027 41.6025 28.0512 41.6025 24C41.6025 14.3333 33.7381 6.46875 24.0714 6.46875Z" fill="url(#paint4_linear_104_4929)"/>
</g>
</g>
<defs>
<linearGradient id="paint0_linear_104_4929" x1="48.071" y1="48.0014" x2="0.0712891" y2="48.0014" gradientUnits="userSpaceOnUse">
<stop stop-color="#0B3F64" stop-opacity="0.35"/>
<stop offset="1" stop-color="#0B3F64"/>
</linearGradient>
<linearGradient id="paint1_linear_104_4929" x1="38.5484" y1="38.4783" x2="9.59375" y2="38.4783" gradientUnits="userSpaceOnUse">
<stop stop-color="#0B3F64" stop-opacity="0.35"/>
<stop offset="1" stop-color="#0B3F64"/>
</linearGradient>
<linearGradient id="paint2_linear_104_4929" x1="33.0431" y1="32.2833" x2="14.2227" y2="32.2833" gradientUnits="userSpaceOnUse">
<stop stop-color="#0B3F64" stop-opacity="0.35"/>
<stop offset="1" stop-color="#0B3F64"/>
</linearGradient>
<linearGradient id="paint3_linear_104_4929" x1="35.4545" y1="41.5321" x2="6.54004" y2="41.5321" gradientUnits="userSpaceOnUse">
<stop stop-color="#0B3F64" stop-opacity="0.35"/>
<stop offset="1" stop-color="#0B3F64"/>
</linearGradient>
<linearGradient id="paint4_linear_104_4929" x1="41.6025" y1="35.3842" x2="12.6865" y2="35.3842" gradientUnits="userSpaceOnUse">
<stop stop-color="#0B3F64" stop-opacity="0.35"/>
<stop offset="1" stop-color="#0B3F64"/>
</linearGradient>
<clipPath id="clip0_104_4929">
<rect width="48" height="48" fill="white" transform="translate(0.5)"/>
</clipPath>
<clipPath id="clip1_104_4929">
<rect width="48" height="48" fill="white" transform="translate(0.0712891)"/>
</clipPath>
</defs>
</svg>
