<svg width="49" height="48" viewBox="0 0 49 48" fill="none" xmlns="http://www.w3.org/2000/svg">
<g clip-path="url(#clip0_104_6826)">
<g clip-path="url(#clip1_104_6826)">
<path d="M11.2717 31.6C8.62446 31.6 6.47168 33.7528 6.47168 36.4C6.47168 39.0473 8.62446 41.2 11.2717 41.2C13.9189 41.2 16.0717 39.0473 16.0717 36.4C16.0717 33.7528 13.9188 31.6 11.2717 31.6ZM11.2717 39.6C9.50684 39.6 8.07171 38.1648 8.07171 36.4C8.07171 34.6352 9.50693 33.2001 11.2717 33.2001C13.0364 33.2001 14.4716 34.6353 14.4716 36.4C14.4716 38.1648 13.0364 39.6 11.2717 39.6Z" fill="url(#paint0_linear_104_6826)"/>
<path d="M38.4709 31.6C35.8237 31.6 33.6709 33.7528 33.6709 36.4C33.6709 39.0473 35.8237 41.2 38.4709 41.2C41.1181 41.2 43.2709 39.0473 43.2709 36.4C43.2709 33.7528 41.1181 31.6 38.4709 31.6ZM38.4709 39.6C36.7061 39.6 35.2709 38.1648 35.2709 36.4C35.2709 34.6352 36.7061 33.2001 38.4709 33.2001C40.2357 33.2001 41.6709 34.6353 41.6709 36.4C41.6709 38.1648 40.2357 39.6 38.4709 39.6Z" fill="url(#paint1_linear_104_6826)"/>
<path d="M47.9444 27.1672L40.7444 15.9672C40.5972 15.7384 40.3436 15.6 40.0716 15.6H31.2716C30.8292 15.6 30.4717 15.9584 30.4717 16.3999V36.3999C30.4717 36.8423 30.8292 37.1999 31.2716 37.1999H34.4716V35.5998H32.0716V17.2H39.6348L46.4716 27.8352V35.6H42.4716V37.2H47.2716C47.714 37.2 48.0716 36.8424 48.0716 36.4V27.6C48.0716 27.4472 48.0277 27.2959 47.9444 27.1672Z" fill="url(#paint2_linear_104_6826)"/>
<path d="M35.2718 26V20.4H41.6718V18.8H34.4718C34.0294 18.8 33.6719 19.1584 33.6719 19.6V26.8C33.6719 27.2424 34.0294 27.5999 34.4718 27.5999H46.4718V25.9999H35.2718V26Z" fill="url(#paint3_linear_104_6826)"/>
<path d="M31.2713 10.0001H0.871258C0.429695 10.0001 0.0712891 10.3585 0.0712891 10.8V36.4001C0.0712891 36.8425 0.429695 37.2 0.871258 37.2H7.27129V35.6H1.67132V11.6H30.4713V35.6H15.2713V37.2H31.2713C31.7137 37.2 32.0713 36.8425 32.0713 36.4001V10.8C32.0713 10.3585 31.7137 10.0001 31.2713 10.0001Z" fill="url(#paint4_linear_104_6826)"/>
<path d="M5.67109 32.4H0.871094V34.0001H5.67109V32.4Z" fill="url(#paint5_linear_104_6826)"/>
<path d="M30.4711 32.4H16.8711V34.0001H30.4711V32.4Z" fill="url(#paint6_linear_104_6826)"/>
<path d="M47.2713 32.4H44.0713V34.0001H47.2713V32.4Z" fill="url(#paint7_linear_104_6826)"/>
<path d="M31.2715 13.1999H3.27148V14.7999H31.2715V13.1999Z" fill="url(#paint8_linear_104_6826)"/>
<path d="M12.0717 35.6H10.4717V37.2H12.0717V35.6Z" fill="url(#paint9_linear_104_6826)"/>
<path d="M39.2709 35.6H37.6709V37.2H39.2709V35.6Z" fill="url(#paint10_linear_104_6826)"/>
<path d="M14.4715 6.79999H3.27148V8.40002H14.4715V6.79999Z" fill="url(#paint11_linear_104_6826)"/>
<path d="M1.67132 6.79999H0.0712891V8.40002H1.67132V6.79999Z" fill="url(#paint12_linear_104_6826)"/>
</g>
</g>
<defs>
<linearGradient id="paint0_linear_104_6826" x1="16.0717" y1="41.2003" x2="6.47168" y2="41.2003" gradientUnits="userSpaceOnUse">
<stop stop-color="#0B3F64" stop-opacity="0.35"/>
<stop offset="1" stop-color="#0B3F64"/>
</linearGradient>
<linearGradient id="paint1_linear_104_6826" x1="43.2709" y1="41.2003" x2="33.6709" y2="41.2003" gradientUnits="userSpaceOnUse">
<stop stop-color="#0B3F64" stop-opacity="0.35"/>
<stop offset="1" stop-color="#0B3F64"/>
</linearGradient>
<linearGradient id="paint2_linear_104_6826" x1="48.0716" y1="37.2006" x2="30.4717" y2="37.2006" gradientUnits="userSpaceOnUse">
<stop stop-color="#0B3F64" stop-opacity="0.35"/>
<stop offset="1" stop-color="#0B3F64"/>
</linearGradient>
<linearGradient id="paint3_linear_104_6826" x1="46.4718" y1="27.6002" x2="33.6719" y2="27.6002" gradientUnits="userSpaceOnUse">
<stop stop-color="#0B3F64" stop-opacity="0.35"/>
<stop offset="1" stop-color="#0B3F64"/>
</linearGradient>
<linearGradient id="paint4_linear_104_6826" x1="32.0713" y1="37.2009" x2="0.0712891" y2="37.2009" gradientUnits="userSpaceOnUse">
<stop stop-color="#0B3F64" stop-opacity="0.35"/>
<stop offset="1" stop-color="#0B3F64"/>
</linearGradient>
<linearGradient id="paint5_linear_104_6826" x1="5.67109" y1="34.0001" x2="0.871094" y2="34.0001" gradientUnits="userSpaceOnUse">
<stop stop-color="#0B3F64" stop-opacity="0.35"/>
<stop offset="1" stop-color="#0B3F64"/>
</linearGradient>
<linearGradient id="paint6_linear_104_6826" x1="30.4711" y1="34.0001" x2="16.8711" y2="34.0001" gradientUnits="userSpaceOnUse">
<stop stop-color="#0B3F64" stop-opacity="0.35"/>
<stop offset="1" stop-color="#0B3F64"/>
</linearGradient>
<linearGradient id="paint7_linear_104_6826" x1="47.2713" y1="34.0001" x2="44.0713" y2="34.0001" gradientUnits="userSpaceOnUse">
<stop stop-color="#0B3F64" stop-opacity="0.35"/>
<stop offset="1" stop-color="#0B3F64"/>
</linearGradient>
<linearGradient id="paint8_linear_104_6826" x1="31.2715" y1="14.8" x2="3.27148" y2="14.8" gradientUnits="userSpaceOnUse">
<stop stop-color="#0B3F64" stop-opacity="0.35"/>
<stop offset="1" stop-color="#0B3F64"/>
</linearGradient>
<linearGradient id="paint9_linear_104_6826" x1="12.0717" y1="37.2001" x2="10.4717" y2="37.2001" gradientUnits="userSpaceOnUse">
<stop stop-color="#0B3F64" stop-opacity="0.35"/>
<stop offset="1" stop-color="#0B3F64"/>
</linearGradient>
<linearGradient id="paint10_linear_104_6826" x1="39.2709" y1="37.2001" x2="37.6709" y2="37.2001" gradientUnits="userSpaceOnUse">
<stop stop-color="#0B3F64" stop-opacity="0.35"/>
<stop offset="1" stop-color="#0B3F64"/>
</linearGradient>
<linearGradient id="paint11_linear_104_6826" x1="14.4715" y1="8.40007" x2="3.27148" y2="8.40007" gradientUnits="userSpaceOnUse">
<stop stop-color="#0B3F64" stop-opacity="0.35"/>
<stop offset="1" stop-color="#0B3F64"/>
</linearGradient>
<linearGradient id="paint12_linear_104_6826" x1="1.67132" y1="8.40007" x2="0.0712891" y2="8.40007" gradientUnits="userSpaceOnUse">
<stop stop-color="#0B3F64" stop-opacity="0.35"/>
<stop offset="1" stop-color="#0B3F64"/>
</linearGradient>
<clipPath id="clip0_104_6826">
<rect width="48" height="48" fill="white" transform="translate(0.5)"/>
</clipPath>
<clipPath id="clip1_104_6826">
<rect width="48" height="48" fill="white" transform="translate(0.0712891)"/>
</clipPath>
</defs>
</svg>
