<svg width="49" height="48" viewBox="0 0 49 48" fill="none" xmlns="http://www.w3.org/2000/svg">
<path d="M42.7383 8.00006H5.40495C4.6977 8.00006 4.01943 8.28101 3.51933 8.78111C3.01923 9.28121 2.73828 9.95948 2.73828 10.6667V37.3334C2.73828 38.0406 3.01923 38.7189 3.51933 39.219C4.01943 39.7191 4.6977 40.0001 5.40495 40.0001H25.4049L26.1649 39.0667L27.4049 37.5467L27.2849 37.3334H5.40495V10.6667H42.7383V22.0801C43.7512 22.7358 44.6517 23.5507 45.4049 24.4934V10.6667C45.4049 9.95948 45.124 9.28121 44.6239 8.78111C44.1238 8.28101 43.4455 8.00006 42.7383 8.00006Z" fill="url(#paint0_linear_104_5326)"/>
<path d="M9.4043 15.9999H32.071V18.1333H9.4043V15.9999Z" fill="url(#paint1_linear_104_5326)"/>
<path d="M9.4043 21.3334H24.071V23.4667H9.4043V21.3334Z" fill="url(#paint2_linear_104_5326)"/>
<path d="M9.4043 30.6667H22.7376V32.8H9.4043V30.6667Z" fill="url(#paint3_linear_104_5326)"/>
<path d="M36.685 22.9733C34.9788 22.9597 33.3082 23.4612 31.8915 24.4122C30.4748 25.3632 29.3779 26.7194 28.7442 28.3036C28.1105 29.8879 27.9695 31.6264 28.3395 33.2921C28.7096 34.9578 29.5735 36.4731 30.8184 37.64L28.2317 40.8L29.4317 45.6133L34.3117 39.6666C35.8564 40.1234 37.5003 40.1234 39.045 39.6666L43.925 45.6133L45.125 40.8L42.5384 37.64C43.7833 36.4731 44.6472 34.9578 45.0172 33.2921C45.3873 31.6264 45.2462 29.8879 44.6125 28.3036C43.9788 26.7194 42.8819 25.3632 41.4653 24.4122C40.0486 23.4612 38.3779 22.9597 36.6717 22.9733H36.685ZM36.685 37.2133C35.552 37.1975 34.4489 36.8471 33.5144 36.2062C32.58 35.5652 31.8559 34.6623 31.4332 33.6109C31.0105 32.5596 30.908 31.4067 31.1387 30.2973C31.3694 29.1878 31.9229 28.1714 32.7297 27.3757C33.5365 26.58 34.5605 26.0406 35.673 25.8252C36.7855 25.6099 37.9369 25.7283 38.9823 26.1655C40.0277 26.6027 40.9205 27.3392 41.5485 28.2824C42.1765 29.2256 42.5116 30.3335 42.5117 31.4666C42.4976 33.0002 41.8767 34.4659 40.7847 35.5428C39.6928 36.6198 38.2187 37.2204 36.685 37.2133Z" fill="url(#paint4_linear_104_5326)"/>
<defs>
<linearGradient id="paint0_linear_104_5326" x1="45.4049" y1="40.001" x2="2.73828" y2="40.001" gradientUnits="userSpaceOnUse">
<stop stop-color="#0B3F64" stop-opacity="0.35"/>
<stop offset="1" stop-color="#0B3F64"/>
</linearGradient>
<linearGradient id="paint1_linear_104_5326" x1="32.071" y1="18.1333" x2="9.4043" y2="18.1333" gradientUnits="userSpaceOnUse">
<stop stop-color="#0B3F64" stop-opacity="0.35"/>
<stop offset="1" stop-color="#0B3F64"/>
</linearGradient>
<linearGradient id="paint2_linear_104_5326" x1="24.071" y1="23.4668" x2="9.4043" y2="23.4668" gradientUnits="userSpaceOnUse">
<stop stop-color="#0B3F64" stop-opacity="0.35"/>
<stop offset="1" stop-color="#0B3F64"/>
</linearGradient>
<linearGradient id="paint3_linear_104_5326" x1="22.7376" y1="32.8001" x2="9.4043" y2="32.8001" gradientUnits="userSpaceOnUse">
<stop stop-color="#0B3F64" stop-opacity="0.35"/>
<stop offset="1" stop-color="#0B3F64"/>
</linearGradient>
<linearGradient id="paint4_linear_104_5326" x1="45.219" y1="45.614" x2="28.1377" y2="45.614" gradientUnits="userSpaceOnUse">
<stop stop-color="#0B3F64" stop-opacity="0.35"/>
<stop offset="1" stop-color="#0B3F64"/>
</linearGradient>
</defs>
</svg>
