<svg width="49" height="48" viewBox="0 0 49 48" fill="none" xmlns="http://www.w3.org/2000/svg">
<g clip-path="url(#clip0_104_5113)">
<path d="M46.1168 18.8107L36.0713 14.5057V6C36.0712 5.8011 35.9922 5.61037 35.8515 5.46975L32.1015 1.71975C31.9609 1.57909 31.7702 1.50004 31.5713 1.5H3.82129C3.22455 1.5 2.65226 1.73705 2.2303 2.15901C1.80834 2.58097 1.57129 3.15326 1.57129 3.75V44.25C1.57129 44.8467 1.80834 45.419 2.2303 45.841C2.65226 46.2629 3.22455 46.5 3.82129 46.5H33.8213C34.418 46.5 34.9903 46.2629 35.4123 45.841C35.8342 45.419 36.0713 44.8467 36.0713 44.25V42.3855L39.9758 39.6C42.0144 38.1408 43.676 36.2169 44.823 33.9877C45.9699 31.7585 46.5693 29.288 46.5713 26.781V19.5C46.5713 19.3532 46.5282 19.2097 46.4474 19.0872C46.3666 18.9647 46.2517 18.8686 46.1168 18.8107ZM34.5713 6.3105V6.75H30.8213V3H31.2608L34.5713 6.3105ZM33.8213 45H3.82129C3.62238 45 3.43161 44.921 3.29096 44.7803C3.15031 44.6397 3.07129 44.4489 3.07129 44.25V3.75C3.07129 3.55109 3.15031 3.36032 3.29096 3.21967C3.43161 3.07902 3.62238 3 3.82129 3H29.3213V7.5C29.3213 7.69891 29.4003 7.88968 29.541 8.03033C29.6816 8.17098 29.8724 8.25 30.0713 8.25H34.5713V14.5057L24.5258 18.8107C24.3909 18.8686 24.276 18.9647 24.1952 19.0872C24.1144 19.2097 24.0713 19.3532 24.0713 19.5V26.781C24.0733 29.288 24.6726 31.7585 25.8196 33.9877C26.9666 36.2169 28.6282 38.1408 30.6668 39.6L34.5713 42.3855V44.25C34.5713 44.4489 34.4923 44.6397 34.3516 44.7803C34.211 44.921 34.0202 45 33.8213 45ZM45.0713 26.781C45.0691 29.0488 44.5267 31.2835 43.489 33.2999C42.4514 35.3164 40.9483 37.0567 39.1043 38.3767L35.3213 41.0783L31.5383 38.3783C29.6941 37.0581 28.1909 35.3175 27.1532 33.3008C26.1155 31.284 25.5733 29.0491 25.5713 26.781V19.9943L35.3213 15.816L45.0713 19.9943V26.781Z" fill="url(#paint0_linear_104_5113)"/>
<path d="M35.0423 18.0532L27.5423 21.0532C27.4032 21.109 27.2839 21.2052 27.2 21.3294C27.116 21.4536 27.0712 21.6001 27.0713 21.75V26.4825C27.0669 28.3954 27.495 30.2845 28.3236 32.0086C29.1522 33.7327 30.3599 35.2472 31.8563 36.4387L34.8526 38.8387C34.9856 38.9452 35.1509 39.0033 35.3213 39.0033C35.4917 39.0033 35.6571 38.9452 35.7901 38.8387L38.7863 36.4387C40.2828 35.2472 41.4905 33.7327 42.3191 32.0086C43.1477 30.2845 43.5758 28.3954 43.5713 26.4825V21.75C43.5714 21.6001 43.5266 21.4536 43.4427 21.3294C43.3587 21.2052 43.2395 21.109 43.1003 21.0532L35.6003 18.0532C35.4211 17.982 35.2215 17.982 35.0423 18.0532ZM42.0713 22.2577V26.4825C42.0754 28.1702 41.6978 29.837 40.9667 31.3581C40.2356 32.8792 39.17 34.2154 37.8496 35.2665L35.3213 37.29L32.7931 35.265C31.4729 34.214 30.4074 32.8781 29.6763 31.3573C28.9452 29.8364 28.5675 28.1699 28.5713 26.4825V22.2577L35.3213 19.5577L42.0713 22.2577Z" fill="url(#paint1_linear_104_5113)"/>
<path d="M5.32129 15H26.3213C26.5202 15 26.711 14.921 26.8516 14.7803C26.9923 14.6397 27.0713 14.4489 27.0713 14.25V5.25C27.0713 5.05109 26.9923 4.86032 26.8516 4.71967C26.711 4.57902 26.5202 4.5 26.3213 4.5H5.32129C5.12238 4.5 4.93161 4.57902 4.79096 4.71967C4.65031 4.86032 4.57129 5.05109 4.57129 5.25V14.25C4.57129 14.4489 4.65031 14.6397 4.79096 14.7803C4.93161 14.921 5.12238 15 5.32129 15ZM6.07129 6H25.5713V13.5H6.07129V6Z" fill="url(#paint2_linear_104_5113)"/>
<path d="M21.8213 33H5.32129C5.12238 33 4.93161 33.079 4.79096 33.2197C4.65031 33.3603 4.57129 33.5511 4.57129 33.75V42.75C4.57129 42.9489 4.65031 43.1397 4.79096 43.2803C4.93161 43.421 5.12238 43.5 5.32129 43.5H21.8213C22.0202 43.5 22.211 43.421 22.3516 43.2803C22.4923 43.1397 22.5713 42.9489 22.5713 42.75V33.75C22.5713 33.5511 22.4923 33.3603 22.3516 33.2197C22.211 33.079 22.0202 33 21.8213 33ZM21.0713 42H6.07129V34.5H21.0713V42Z" fill="url(#paint3_linear_104_5113)"/>
<path d="M4.57129 18.75H22.5713V20.25H4.57129V18.75Z" fill="url(#paint4_linear_104_5113)"/>
<path d="M4.57129 23.25H22.5713V24.75H4.57129V23.25Z" fill="url(#paint5_linear_104_5113)"/>
<path d="M4.57129 27.75H22.5713V29.25H4.57129V27.75Z" fill="url(#paint6_linear_104_5113)"/>
</g>
<defs>
<linearGradient id="paint0_linear_104_5113" x1="46.5713" y1="46.5014" x2="1.57129" y2="46.5014" gradientUnits="userSpaceOnUse">
<stop stop-color="#0B3F64" stop-opacity="0.35"/>
<stop offset="1" stop-color="#0B3F64"/>
</linearGradient>
<linearGradient id="paint1_linear_104_5113" x1="43.5714" y1="39.0039" x2="27.0713" y2="39.0039" gradientUnits="userSpaceOnUse">
<stop stop-color="#0B3F64" stop-opacity="0.35"/>
<stop offset="1" stop-color="#0B3F64"/>
</linearGradient>
<linearGradient id="paint2_linear_104_5113" x1="27.0713" y1="15.0003" x2="4.57129" y2="15.0003" gradientUnits="userSpaceOnUse">
<stop stop-color="#0B3F64" stop-opacity="0.35"/>
<stop offset="1" stop-color="#0B3F64"/>
</linearGradient>
<linearGradient id="paint3_linear_104_5113" x1="22.5713" y1="43.5003" x2="4.57129" y2="43.5003" gradientUnits="userSpaceOnUse">
<stop stop-color="#0B3F64" stop-opacity="0.35"/>
<stop offset="1" stop-color="#0B3F64"/>
</linearGradient>
<linearGradient id="paint4_linear_104_5113" x1="22.5713" y1="20.25" x2="4.57129" y2="20.25" gradientUnits="userSpaceOnUse">
<stop stop-color="#0B3F64" stop-opacity="0.35"/>
<stop offset="1" stop-color="#0B3F64"/>
</linearGradient>
<linearGradient id="paint5_linear_104_5113" x1="22.5713" y1="24.75" x2="4.57129" y2="24.75" gradientUnits="userSpaceOnUse">
<stop stop-color="#0B3F64" stop-opacity="0.35"/>
<stop offset="1" stop-color="#0B3F64"/>
</linearGradient>
<linearGradient id="paint6_linear_104_5113" x1="22.5713" y1="29.25" x2="4.57129" y2="29.25" gradientUnits="userSpaceOnUse">
<stop stop-color="#0B3F64" stop-opacity="0.35"/>
<stop offset="1" stop-color="#0B3F64"/>
</linearGradient>
<clipPath id="clip0_104_5113">
<rect width="48" height="48" fill="white" transform="translate(0.5)"/>
</clipPath>
</defs>
</svg>
