<svg width="332" height="368" viewBox="0 0 332 368" fill="none" xmlns="http://www.w3.org/2000/svg">
<g filter="url(#filter0_d_2_2712)">
<g clip-path="url(#clip0_2_2712)">
<rect x="4" y="2" width="324" height="360" rx="3" fill="url(#paint0_linear_2_2712)"/>
<g opacity="0.6" clip-path="url(#clip1_2_2712)" filter="url(#filter1_d_2_2712)">
<path d="M119.324 335.724C119.091 336.911 117.937 337.692 116.749 337.459C115.562 337.227 114.781 336.073 115.014 334.885C115.346 333.224 116.243 331.771 117.505 330.733C118.751 329.711 120.337 329.097 122.056 329.097C124.032 329.097 125.826 329.902 127.122 331.198C128.426 332.493 129.223 334.287 129.223 336.264C129.223 338.199 128.459 339.951 127.222 341.246C128.459 342.534 129.223 344.286 129.223 346.221C129.223 348.197 128.426 349.991 127.122 351.287C125.826 352.59 124.032 353.388 122.056 353.388C120.262 353.388 118.618 352.723 117.355 351.627C115.794 350.274 114.881 348.28 114.881 346.221C114.881 345 115.861 344.02 117.082 344.02C118.294 344.02 119.274 345 119.274 346.221C119.274 347.035 119.598 347.774 120.229 348.322C120.711 348.737 121.35 348.995 122.056 348.995C122.82 348.995 123.518 348.687 124.016 348.181C124.522 347.683 124.83 346.985 124.83 346.221C124.83 345.448 124.522 344.759 124.016 344.253C123.493 343.729 122.795 343.439 122.056 343.439C120.843 343.439 119.855 342.459 119.855 341.246C119.855 340.026 120.843 339.046 122.056 339.046C122.82 339.046 123.518 338.738 124.016 338.232C124.522 337.734 124.83 337.036 124.83 336.264C124.83 335.5 124.522 334.802 124.016 334.304C123.518 333.797 122.82 333.49 122.056 333.49C121.375 333.49 120.76 333.723 120.287 334.113C119.797 334.511 119.457 335.076 119.324 335.724ZM169.052 232.064L171.751 236.457L176.759 237.661C177.714 237.894 178.487 238.492 178.96 239.264C179.433 240.045 179.608 241 179.384 241.955C179.309 242.246 179.217 242.503 179.101 242.736C178.977 242.976 178.819 243.209 178.628 243.433L175.289 247.353L175.688 252.519L175.696 252.594C175.746 253.54 175.414 254.429 174.824 255.11C174.234 255.8 173.379 256.264 172.399 256.339C172.075 256.364 171.759 256.339 171.461 256.281C171.161 256.223 170.871 256.131 170.605 255.999L166.004 254.097L161.221 256.073C160.308 256.447 159.336 256.422 158.505 256.073C157.658 255.716 156.952 255.044 156.579 254.139C156.471 253.881 156.396 253.616 156.355 253.35C156.304 253.067 156.296 252.785 156.313 252.519L156.711 247.353L153.373 243.433C152.733 242.686 152.459 241.756 152.526 240.851C152.601 239.938 153.016 239.057 153.763 238.418C154.013 238.21 154.262 238.044 154.519 237.911C154.577 237.886 154.635 237.861 154.693 237.836C154.926 237.745 155.15 237.67 155.383 237.62L155.466 237.612L160.258 236.449L162.965 232.048V232.04C163.48 231.201 164.285 230.653 165.174 230.437C166.062 230.229 167.034 230.354 167.873 230.869C167.94 230.911 168.006 230.96 168.064 231.01C168.238 231.126 168.396 231.267 168.537 231.417C168.737 231.616 168.911 231.832 169.052 232.064ZM168.479 239.522L165.996 235.486L163.521 239.514V239.505C163.231 239.987 162.758 240.353 162.168 240.494L157.575 241.607L160.565 245.111C160.972 245.543 161.213 246.141 161.163 246.789L160.797 251.514L165.166 249.704C165.681 249.496 166.279 249.479 166.835 249.704L171.212 251.514L170.838 246.789H170.846C170.805 246.232 170.971 245.659 171.361 245.202L174.426 241.607L169.999 240.535C169.393 240.436 168.828 240.087 168.479 239.522ZM181.51 251.73C182 250.625 183.295 250.127 184.4 250.625C185.504 251.115 186.003 252.411 185.504 253.515C184.118 256.621 182.606 259.411 181.086 261.82C182.282 261.579 183.528 261.189 184.782 260.649C187.489 259.478 190.197 257.642 192.539 255.193C193.867 253.806 194.997 252.344 195.91 250.858C196.849 249.338 197.571 247.785 198.078 246.248C198.808 244.023 199.049 241.889 198.775 240.02C198.526 238.376 197.878 236.956 196.782 235.917C195.852 235.029 194.772 234.514 193.61 234.265C192.837 234.099 192.023 234.049 191.193 234.074C190.711 237.388 189.981 240.676 189.042 243.89C188.701 245.053 187.489 245.725 186.326 245.385C185.164 245.053 184.499 243.832 184.831 242.669C185.687 239.771 186.376 236.681 186.849 233.459C187.182 231.208 187.397 228.9 187.489 226.542H144.52C144.803 234.406 146.588 241.814 149.021 248.158C151.139 253.689 155.541 262.592 160.549 266.736C165.797 271.071 162.309 276.195 158.481 281.809C156.753 284.351 154.926 287.025 154.17 289.491H177.831C177.075 287.025 175.256 284.351 173.52 281.809C169.7 276.195 166.204 271.071 171.452 266.736C172.964 265.491 174.733 263.439 176.551 260.749C178.254 258.224 179.965 255.168 181.51 251.73ZM177.781 266.462C176.552 267.973 175.356 269.203 174.251 270.117C172.084 271.91 174.5 275.457 177.141 279.335C179.334 282.549 181.642 285.937 182.356 289.491H187.979C189.191 289.491 190.171 290.48 190.171 291.692V303.41H231.919C233.14 303.41 234.12 304.39 234.12 305.603V314.19C234.12 315.402 233.14 316.382 231.919 316.382C230.706 316.382 229.727 315.402 229.727 314.19V307.803H190.171V357.607H229.727V324.139C229.727 322.926 230.707 321.946 231.919 321.946C233.14 321.946 234.12 322.926 234.12 324.139V359.808C234.12 361.02 233.14 362 231.919 362C187.979 362 144.03 362 100.082 362C98.869 362 97.8809 361.02 97.8809 359.808V341.546C97.8809 340.333 98.869 339.353 100.082 339.353C101.294 339.353 102.274 340.333 102.274 341.546V357.607H141.829V324.878H102.274V331.597C102.274 332.809 101.294 333.789 100.082 333.789C98.8693 333.789 97.8812 332.809 97.8812 331.597V322.677C97.8812 321.465 98.8693 320.485 100.082 320.485H141.83V311.856C141.83 310.644 142.81 309.656 144.03 309.656C145.243 309.656 146.223 310.644 146.223 311.856V357.607H185.779V293.893H180.388H151.612H146.223V301.899C146.223 303.119 145.242 304.099 144.03 304.099C142.81 304.099 141.829 303.119 141.829 301.899V291.692C141.829 290.479 142.81 289.491 144.03 289.491H149.644C150.367 285.937 152.676 282.548 154.86 279.334C157.509 275.456 159.918 271.91 157.758 270.116C156.662 269.211 155.466 267.982 154.237 266.462C151.505 266.587 148.482 265.972 145.484 264.685C142.27 263.298 139.064 261.114 136.282 258.216C132.354 254.096 129.871 249.288 129.049 244.837C128.16 240.078 129.14 235.668 132.196 232.737C133.766 231.242 135.568 230.386 137.486 229.979C138.408 229.78 139.355 229.689 140.302 229.68C140.21 228.534 140.144 227.38 140.111 226.209C138.981 225.852 137.96 225.229 137.146 224.407C135.826 223.095 135.012 221.276 135.012 219.274C135.012 217.273 135.826 215.454 137.146 214.134C138.458 212.822 140.276 212 142.278 212H189.723C191.724 212 193.543 212.822 194.855 214.134C196.176 215.455 196.99 217.273 196.99 219.275C196.99 221.276 196.176 223.095 194.855 224.408C194.041 225.23 193.028 225.853 191.89 226.21C191.857 227.381 191.791 228.535 191.699 229.681C192.646 229.689 193.593 229.781 194.515 229.98C196.433 230.387 198.235 231.242 199.805 232.737C201.64 234.498 202.728 236.79 203.118 239.389C203.492 241.922 203.185 244.746 202.247 247.602C201.649 249.446 200.768 251.323 199.639 253.159C198.551 254.911 197.247 256.613 195.719 258.216C192.945 261.114 189.731 263.299 186.517 264.677C183.527 265.972 180.505 266.587 177.781 266.462ZM150.923 261.828C148.781 258.44 146.68 254.338 144.919 249.72C143.108 244.986 141.63 239.696 140.8 234.074C139.977 234.049 139.164 234.099 138.391 234.265C137.229 234.514 136.149 235.029 135.219 235.918C133.309 237.745 132.736 240.718 133.35 244.048C134.031 247.702 136.124 251.697 139.463 255.193C141.804 257.643 144.512 259.478 147.219 260.649C148.482 261.189 149.727 261.588 150.923 261.828ZM142.278 222.148H189.723C190.511 222.148 191.226 221.825 191.749 221.301C192.272 220.778 192.596 220.064 192.596 219.275C192.596 218.486 192.272 217.764 191.749 217.24C191.226 216.717 190.511 216.393 189.723 216.393H142.278C141.489 216.393 140.775 216.717 140.251 217.24C139.729 217.764 139.404 218.486 139.404 219.275C139.404 220.064 139.728 220.778 140.251 221.301C140.775 221.824 141.489 222.148 142.278 222.148ZM215.725 331.322C216.929 331.314 217.926 332.277 217.934 333.49C217.951 334.694 216.979 335.691 215.775 335.699C215.75 335.699 205.951 335.831 205.145 335.558C203.551 335.026 203.052 333.872 203.808 332.344C204.015 331.895 204.389 331.405 205.062 330.525C206.083 329.188 207.943 326.746 210.966 322.428C211.456 321.722 211.838 321.082 212.129 320.501C212.769 319.189 213.092 317.927 211.913 316.747C211.415 316.241 210.717 315.933 209.953 315.933C209.273 315.933 208.658 316.166 208.184 316.556C207.694 316.955 207.346 317.519 207.221 318.167C206.989 319.355 205.834 320.136 204.647 319.903C203.459 319.67 202.678 318.516 202.911 317.329C203.243 315.668 204.14 314.206 205.402 313.176C206.648 312.155 208.234 311.54 209.953 311.54C211.93 311.54 213.724 312.338 215.019 313.641C216.63 315.252 217.477 317.702 216.963 319.953C216.788 320.709 216.497 321.531 216.057 322.428C215.675 323.208 215.177 324.047 214.554 324.936C212.47 327.909 210.975 329.96 209.904 331.389C212.519 331.364 215.708 331.322 215.725 331.322ZM163.92 302.023C162.708 302.023 161.728 301.035 161.728 299.822C161.728 298.609 162.708 297.621 163.92 297.621H168.081C169.293 297.621 170.273 298.609 170.273 299.822V319.263C170.273 322.153 165.88 322.153 165.88 319.263V302.023H163.92V302.023Z" fill="white"/>
</g>
<g filter="url(#filter2_d_2_2712)">
<circle cx="230" cy="60" r="14.5" stroke="#3F96EA"/>
</g>
<g filter="url(#filter3_d_2_2712)">
<circle cx="290" cy="220" r="14.5" stroke="#3F96EA"/>
</g>
<g filter="url(#filter4_d_2_2712)">
<circle cx="60" cy="300" r="14.5" stroke="#3F96EA"/>
</g>
</g>
</g>
<defs>
<filter id="filter0_d_2_2712" x="0" y="0" width="332" height="368" filterUnits="userSpaceOnUse" color-interpolation-filters="sRGB">
<feFlood flood-opacity="0" result="BackgroundImageFix"/>
<feColorMatrix in="SourceAlpha" type="matrix" values="0 0 0 0 0 0 0 0 0 0 0 0 0 0 0 0 0 0 127 0" result="hardAlpha"/>
<feOffset dy="2"/>
<feGaussianBlur stdDeviation="2"/>
<feColorMatrix type="matrix" values="0 0 0 0 0 0 0 0 0 0.0941176 0 0 0 0 0.439216 0 0 0 0.21 0"/>
<feBlend mode="normal" in2="BackgroundImageFix" result="effect1_dropShadow_2_2712"/>
<feBlend mode="normal" in="SourceGraphic" in2="effect1_dropShadow_2_2712" result="shape"/>
</filter>
<filter id="filter1_d_2_2712" x="87" y="210" width="158" height="158" filterUnits="userSpaceOnUse" color-interpolation-filters="sRGB">
<feFlood flood-opacity="0" result="BackgroundImageFix"/>
<feColorMatrix in="SourceAlpha" type="matrix" values="0 0 0 0 0 0 0 0 0 0 0 0 0 0 0 0 0 0 127 0" result="hardAlpha"/>
<feOffset dy="2"/>
<feGaussianBlur stdDeviation="2"/>
<feColorMatrix type="matrix" values="0 0 0 0 0 0 0 0 0 0.0941176 0 0 0 0 0.439216 0 0 0 0.21 0"/>
<feBlend mode="normal" in2="BackgroundImageFix" result="effect1_dropShadow_2_2712"/>
<feBlend mode="normal" in="SourceGraphic" in2="effect1_dropShadow_2_2712" result="shape"/>
</filter>
<filter id="filter2_d_2_2712" x="209" y="39" width="42" height="42" filterUnits="userSpaceOnUse" color-interpolation-filters="sRGB">
<feFlood flood-opacity="0" result="BackgroundImageFix"/>
<feColorMatrix in="SourceAlpha" type="matrix" values="0 0 0 0 0 0 0 0 0 0 0 0 0 0 0 0 0 0 127 0" result="hardAlpha"/>
<feOffset/>
<feGaussianBlur stdDeviation="3"/>
<feColorMatrix type="matrix" values="0 0 0 0 1 0 0 0 0 1 0 0 0 0 1 0 0 0 0.8 0"/>
<feBlend mode="normal" in2="BackgroundImageFix" result="effect1_dropShadow_2_2712"/>
<feBlend mode="normal" in="SourceGraphic" in2="effect1_dropShadow_2_2712" result="shape"/>
</filter>
<filter id="filter3_d_2_2712" x="269" y="199" width="42" height="42" filterUnits="userSpaceOnUse" color-interpolation-filters="sRGB">
<feFlood flood-opacity="0" result="BackgroundImageFix"/>
<feColorMatrix in="SourceAlpha" type="matrix" values="0 0 0 0 0 0 0 0 0 0 0 0 0 0 0 0 0 0 127 0" result="hardAlpha"/>
<feOffset/>
<feGaussianBlur stdDeviation="3"/>
<feColorMatrix type="matrix" values="0 0 0 0 1 0 0 0 0 1 0 0 0 0 1 0 0 0 0.8 0"/>
<feBlend mode="normal" in2="BackgroundImageFix" result="effect1_dropShadow_2_2712"/>
<feBlend mode="normal" in="SourceGraphic" in2="effect1_dropShadow_2_2712" result="shape"/>
</filter>
<filter id="filter4_d_2_2712" x="39" y="279" width="42" height="42" filterUnits="userSpaceOnUse" color-interpolation-filters="sRGB">
<feFlood flood-opacity="0" result="BackgroundImageFix"/>
<feColorMatrix in="SourceAlpha" type="matrix" values="0 0 0 0 0 0 0 0 0 0 0 0 0 0 0 0 0 0 127 0" result="hardAlpha"/>
<feOffset/>
<feGaussianBlur stdDeviation="3"/>
<feColorMatrix type="matrix" values="0 0 0 0 1 0 0 0 0 1 0 0 0 0 1 0 0 0 0.8 0"/>
<feBlend mode="normal" in2="BackgroundImageFix" result="effect1_dropShadow_2_2712"/>
<feBlend mode="normal" in="SourceGraphic" in2="effect1_dropShadow_2_2712" result="shape"/>
</filter>
<linearGradient id="paint0_linear_2_2712" x1="328" y1="362.011" x2="4" y2="362.011" gradientUnits="userSpaceOnUse">
<stop stop-color="#0B3F64" stop-opacity="0.35"/>
<stop offset="1" stop-color="#0B3F64"/>
</linearGradient>
<clipPath id="clip0_2_2712">
<rect x="4" y="2" width="324" height="360" rx="3" fill="white"/>
</clipPath>
<clipPath id="clip1_2_2712">
<rect width="150" height="150" fill="white" transform="translate(91 212)"/>
</clipPath>
</defs>
</svg>
