<svg width="101" height="100" viewBox="0 0 101 100" fill="none" xmlns="http://www.w3.org/2000/svg">
<g clip-path="url(#clip0_11966_361)">
<g clip-path="url(#clip1_11966_361)">
<path d="M89.6823 101C89.3556 101 89.029 100.903 88.7456 100.713L77.3223 92.94L65.899 100.713C65.329 101.103 64.5756 101.097 64.0056 100.7C63.4356 100.303 63.1756 99.5967 63.3456 98.9267L66.8823 84.9667L56.2423 75.88C55.7256 75.4367 55.529 74.7233 55.7456 74.08C55.9623 73.4367 56.549 72.9867 57.229 72.95L70.839 72.18L75.7623 58.7633C76.2456 57.45 78.409 57.45 78.889 58.7633L83.8123 72.18L97.4223 72.95C98.1023 72.9867 98.689 73.4367 98.9056 74.08C99.1223 74.7233 98.9256 75.4367 98.409 75.88L87.769 84.9667L91.3056 98.9267C91.4756 99.5967 91.2123 100.303 90.6456 100.7C90.3523 100.9 90.019 101 89.6823 101ZM77.3223 89.2567C77.649 89.2567 77.9756 89.3533 78.259 89.5433L86.989 95.4833L84.279 84.78C84.1256 84.1667 84.3323 83.5167 84.8123 83.1033L93.0823 76.04L82.5256 75.44C81.8623 75.4033 81.2823 74.9733 81.0556 74.35L77.3223 64.17L73.589 74.35C73.3623 74.9733 72.7823 75.4 72.119 75.44L61.5623 76.04L69.8323 83.1033C70.3156 83.5167 70.5223 84.1667 70.3656 84.78L67.6556 95.4833L76.3856 89.5433C76.669 89.35 76.9956 89.2567 77.3223 89.2567Z" fill="#0B3F64"/>
<path d="M53.9888 87.6666H20.6554C19.7354 87.6666 18.9888 86.92 18.9888 86V72.6667C18.9888 66.2333 24.2221 61 30.6554 61H63.9888C64.9088 61 65.6554 61.7467 65.6554 62.6667C65.6554 63.5867 64.9088 64.3333 63.9888 64.3333H30.6554C26.0621 64.3333 22.3221 68.0733 22.3221 72.6667V84.3333H53.9888C54.9088 84.3333 55.6554 85.08 55.6554 86C55.6554 86.92 54.9088 87.6666 53.9888 87.6666Z" fill="#0B3F64"/>
<path d="M45.6554 54.3333C39.2221 54.3333 33.9888 49.1 33.9888 42.6667C33.9888 41.7467 34.7354 41 35.6554 41C41.3821 41 43.9888 36.68 43.9888 32.6667C43.9888 31.7467 44.7354 31 45.6554 31C46.5754 31 47.3221 31.7467 47.3221 32.6667C47.3221 36.68 49.9288 41 55.6554 41C56.5754 41 57.3221 41.7467 57.3221 42.6667C57.3221 49.1 52.0888 54.3333 45.6554 54.3333ZM37.4654 44.2167C38.1954 48.0733 41.5921 51 45.6554 51C49.7188 51 53.1154 48.0733 53.8454 44.2167C50.0088 43.7167 47.2588 41.6267 45.6554 38.8967C44.0521 41.6267 41.3021 43.7167 37.4654 44.2167Z" fill="#0B3F64"/>
<path d="M58.9889 54.3333H32.3223C29.5656 54.3333 27.3223 52.09 27.3223 49.3333V39.3333C27.3223 29.2233 35.5456 21 45.6556 21C55.7656 21 63.9889 29.2233 63.9889 39.3333V49.3333C63.9889 52.09 61.7456 54.3333 58.9889 54.3333ZM45.6556 24.3333C37.3856 24.3333 30.6556 31.0633 30.6556 39.3333V49.3333C30.6556 50.2533 31.4023 51 32.3223 51H58.9889C59.9089 51 60.6556 50.2533 60.6556 49.3333V39.3333C60.6556 31.0633 53.9256 24.3333 45.6556 24.3333Z" fill="#0B3F64"/>
</g>
</g>
<defs>
<clipPath id="clip0_11966_361">
<rect width="100" height="100" fill="white" transform="translate(0.98877)"/>
</clipPath>
<clipPath id="clip1_11966_361">
<rect width="80" height="80" fill="white" transform="translate(18.9888 21)"/>
</clipPath>
</defs>
</svg>
