<svg width="81" height="80" viewBox="0 0 81 80" fill="none" xmlns="http://www.w3.org/2000/svg">
<g clip-path="url(#clip0_11966_1287)">
<path d="M65.586 69.6774L62.5989 60.7148C61.5551 57.5858 58.8918 55.2761 55.6454 54.6851L47.0222 53.1161V52.4477C48.5228 51.5767 49.8286 50.4116 50.8686 49.0322H53.4738C55.608 49.0322 57.3447 47.2955 57.3447 45.1613V29.6774C57.3447 20.4284 49.8196 12.9032 40.5705 12.9032C31.3215 12.9032 23.7963 20.4284 23.7963 29.6774V38.7096C23.7963 41.1974 25.5654 43.2787 27.9112 43.7638C28.6351 47.4722 30.9525 50.6103 34.1189 52.4477V53.1161L25.4944 54.6851C22.2493 55.2761 19.5847 57.5858 18.5422 60.7148L18.026 62.2645L13.6312 57.8696C13.128 57.3664 13.128 56.5471 13.6312 56.0438L18.728 50.9484L9.16151 41.3819L3.40151 47.1419C1.6957 48.8477 0.756348 51.1161 0.756348 53.529C0.756348 55.9419 1.6957 58.209 3.40151 59.9148L20.8402 77.3535C22.546 79.0593 24.8144 80 27.2273 80C29.6402 80 31.9073 79.0593 33.5731 77.3922L39.8583 71.6335L37.8983 69.6774H65.586ZM54.7641 45.1613C54.7641 45.8735 54.1847 46.4516 53.4738 46.4516H52.3886C52.7628 45.5987 53.0467 44.6993 53.2299 43.7638C53.7822 43.649 54.2905 43.4296 54.7641 43.1535V45.1613ZM53.4738 40.9316V36.4877C54.2415 36.9355 54.7641 37.7587 54.7641 38.7096C54.7641 39.6606 54.2415 40.4838 53.4738 40.9316ZM27.6673 40.9316C26.8996 40.4838 26.377 39.6606 26.377 38.7096C26.377 37.7587 26.8996 36.9355 27.6673 36.4877V40.9316ZM27.6673 32.258V33.7316C27.208 33.8516 26.777 34.0322 26.377 34.2658V29.6774C26.377 21.8516 32.7447 15.4838 40.5705 15.4838C48.3964 15.4838 54.7641 21.8516 54.7641 29.6774V34.2658C54.3641 34.0322 53.9331 33.8503 53.4738 33.7316V32.258H52.1835C48.368 32.258 44.7809 30.7716 42.0815 28.0735L40.5705 26.5626L39.0596 28.0735C36.3602 30.7716 32.7731 32.258 28.9576 32.258H27.6673ZM30.248 41.2903V34.7896C34.1228 34.498 37.7357 32.8993 40.5705 30.2038C43.4054 32.8993 47.0183 34.4993 50.8931 34.7896V41.2903C50.8931 43.1716 50.3796 44.9316 49.497 46.4516H40.5705V49.0322H47.3757C45.5564 50.6335 43.1783 51.6129 40.5705 51.6129C34.8789 51.6129 30.248 46.9819 30.248 41.2903ZM44.4415 53.5987V53.6593L40.5705 57.5303L36.6996 53.6593V53.5987C37.9228 53.9832 39.2222 54.1935 40.5705 54.1935C41.9189 54.1935 43.2183 53.9832 44.4415 53.5987ZM20.9886 61.5303C21.7331 59.2955 23.6363 57.6451 25.9551 57.2219L34.9744 55.5832L40.5705 61.1793L46.1654 55.5845L55.1835 57.2232C57.5022 57.6464 59.4054 59.2955 60.1499 61.5316L62.0067 67.0967H35.3176L30.2918 62.0709L24.7073 67.1226C24.2209 67.6116 23.3705 67.6116 22.8828 67.1226L20.0647 64.3045L20.9886 61.5303ZM9.16022 45.0309L15.0776 50.9484L13.6763 52.3496L7.75893 46.4322L9.16022 45.0309ZM31.786 75.5316C30.568 76.7471 28.9473 77.4193 27.2247 77.4193C25.5022 77.4193 23.8815 76.7471 22.6622 75.529L5.22344 58.0916C4.00538 56.8735 3.33441 55.2529 3.33441 53.5303C3.33441 51.8064 4.00538 50.1858 5.22344 48.9677L5.93312 48.258L11.8505 54.1755L11.8041 54.2219C10.2957 55.7316 10.2957 58.1871 11.8041 59.6967L21.057 68.9496C21.7886 69.68 22.7602 70.0838 23.7951 70.0838C24.8299 70.0838 25.8015 69.6813 26.4854 68.9948L26.5822 68.9084L32.5267 74.8529L31.786 75.5316ZM34.4312 73.1058L28.4996 67.1742L30.2041 65.6335L36.1254 71.5548L34.4312 73.1058Z" fill="#0B3F64"/>
<path d="M76.6996 0H58.6351C56.5009 0 54.7642 1.73677 54.7642 3.87097V14.1935C54.7642 16.3277 56.5009 18.0645 58.6351 18.0645H62.0816L60.7474 25.8465L73.199 18.0645H76.6996C78.8338 18.0645 80.5706 16.3277 80.5706 14.1935V3.87097C80.5706 1.73677 78.8338 0 76.6996 0ZM77.99 14.1935C77.99 14.9045 77.4106 15.4839 76.6996 15.4839H72.4583L64.2635 20.6052L65.1422 15.4839H58.6351C57.9242 15.4839 57.3448 14.9045 57.3448 14.1935V3.87097C57.3448 3.16 57.9242 2.58065 58.6351 2.58065H76.6996C77.4106 2.58065 77.99 3.16 77.99 3.87097V14.1935Z" fill="#0B3F64"/>
<path d="M75.4092 5.16125H59.9253V7.7419H75.4092V5.16125Z" fill="#0B3F64"/>
<path d="M70.2479 10.3226H59.9253V12.9033H70.2479V10.3226Z" fill="#0B3F64"/>
<path d="M75.4093 10.3226H72.8286V12.9033H75.4093V10.3226Z" fill="#0B3F64"/>
<path d="M40.5709 3.87097C23.7115 3.87097 9.18892 15.5329 5.41344 31.8L2.96827 27.7239L0.755371 29.0516L5.29085 36.609L12.8483 32.0736L11.5205 29.8606L8.02376 31.9587C11.6805 17.0774 25.0625 6.45162 40.5709 6.45162C43.9605 6.45162 47.305 6.95484 50.5115 7.94839L51.2754 5.48387C47.8212 4.41291 44.2199 3.87097 40.5709 3.87097Z" fill="#0B3F64"/>
<path d="M79.9438 28.5704L72.3864 24.0349L67.8522 31.5936L70.0651 32.9214L72.3232 29.1575C73.5116 32.6349 74.1193 36.2723 74.1193 40.0001C74.1193 47.6736 71.4612 55.1756 66.6367 61.1227L68.6406 62.7485C73.838 56.3433 76.6999 48.2633 76.6999 40.0001C76.6999 36.053 76.0638 32.1988 74.8238 28.5085L78.6161 30.7833L79.9438 28.5704Z" fill="#0B3F64"/>
</g>
<defs>
<clipPath id="clip0_11966_1287">
<rect width="80" height="80" fill="white" transform="translate(0.663086)"/>
</clipPath>
</defs>
</svg>
