<svg width="101" height="100" viewBox="0 0 101 100" fill="none" xmlns="http://www.w3.org/2000/svg">
<g clip-path="url(#clip0_11966_788)">
<path d="M95.0687 52.3512L78.3262 45.1763V31C78.3261 30.6685 78.1944 30.3506 77.9599 30.1163L71.7099 23.8662C71.4756 23.6318 71.1577 23.5001 70.8262 23.5H24.5762C23.5816 23.5 22.6278 23.8951 21.9245 24.5983C21.2213 25.3016 20.8262 26.2554 20.8262 27.25V94.75C20.8262 95.7446 21.2213 96.6984 21.9245 97.4016C22.6278 98.1049 23.5816 98.5 24.5762 98.5H74.5762C75.5707 98.5 76.5246 98.1049 77.2278 97.4016C77.9311 96.6984 78.3262 95.7446 78.3262 94.75V91.6425L84.8337 87C88.2314 84.5681 91.0007 81.3616 92.9123 77.6462C94.8239 73.9308 95.8228 69.8133 95.8262 65.635V53.5C95.8261 53.2554 95.7544 53.0162 95.6197 52.812C95.4851 52.6078 95.2935 52.4476 95.0687 52.3512ZM75.8262 31.5175V32.25H69.5762V26H70.3087L75.8262 31.5175ZM74.5762 96H24.5762C24.2447 96 23.9267 95.8683 23.6923 95.6339C23.4579 95.3995 23.3262 95.0815 23.3262 94.75V27.25C23.3262 26.9185 23.4579 26.6005 23.6923 26.3661C23.9267 26.1317 24.2447 26 24.5762 26H67.0762V33.5C67.0762 33.8315 67.2079 34.1495 67.4423 34.3839C67.6767 34.6183 67.9947 34.75 68.3262 34.75H75.8262V45.1763L59.0837 52.3512C58.8589 52.4476 58.6673 52.6078 58.5326 52.812C58.398 53.0162 58.3262 53.2554 58.3262 53.5V65.635C58.3295 69.8133 59.3284 73.9308 61.24 77.6462C63.1516 81.3616 65.921 84.5681 69.3187 87L75.8262 91.6425V94.75C75.8262 95.0815 75.6945 95.3995 75.4601 95.6339C75.2256 95.8683 74.9077 96 74.5762 96ZM93.3262 65.635C93.3225 69.4147 92.4185 73.1391 90.6891 76.4999C88.9597 79.8607 86.4545 82.7612 83.3812 84.9613L77.0762 89.4638L70.7712 84.9638C67.6975 82.7635 65.1921 79.8625 63.4627 76.5013C61.7333 73.14 60.8295 69.4151 60.8262 65.635V54.3237L77.0762 47.36L93.3262 54.3237V65.635Z" fill="#0B3F64"/>
<path d="M76.6112 51.0887L64.1112 56.0887C63.8793 56.1816 63.6806 56.3419 63.5406 56.5489C63.4007 56.7559 63.326 57.0001 63.3262 57.2499V65.1374C63.3188 68.3256 64.0323 71.4741 65.4133 74.3476C66.7943 77.2211 68.8072 79.7452 71.3012 81.7312L76.295 85.7312C76.5167 85.9087 76.7922 86.0054 77.0762 86.0054C77.3602 86.0054 77.6358 85.9087 77.8575 85.7312L82.8512 81.7312C85.3453 79.7452 87.3581 77.2211 88.7391 74.3476C90.1202 71.4741 90.8336 68.3256 90.8262 65.1374V57.2499C90.8264 57.0001 90.7517 56.7559 90.6118 56.5489C90.4719 56.3419 90.2731 56.1816 90.0412 56.0887L77.5412 51.0887C77.2426 50.97 76.9099 50.97 76.6112 51.0887ZM88.3262 58.0962V65.1374C88.333 67.9503 87.7036 70.7282 86.4851 73.2634C85.2667 75.7987 83.4906 78.0255 81.29 79.7774L77.0762 83.1499L72.8625 79.7749C70.6621 78.0233 68.8863 75.7968 67.6679 73.2621C66.4494 70.7273 65.8198 67.9498 65.8262 65.1374V58.0962L77.0762 53.5962L88.3262 58.0962Z" fill="#0B3F64"/>
<path d="M27.0762 46H62.0762C62.4077 46 62.7256 45.8683 62.9601 45.6339C63.1945 45.3995 63.3262 45.0815 63.3262 44.75V29.75C63.3262 29.4185 63.1945 29.1005 62.9601 28.8661C62.7256 28.6317 62.4077 28.5 62.0762 28.5H27.0762C26.7447 28.5 26.4267 28.6317 26.1923 28.8661C25.9579 29.1005 25.8262 29.4185 25.8262 29.75V44.75C25.8262 45.0815 25.9579 45.3995 26.1923 45.6339C26.4267 45.8683 26.7447 46 27.0762 46ZM28.3262 31H60.8262V43.5H28.3262V31Z" fill="#0B3F64"/>
<path d="M54.5762 76H27.0762C26.7447 76 26.4267 76.1317 26.1923 76.3661C25.9579 76.6005 25.8262 76.9185 25.8262 77.25V92.25C25.8262 92.5815 25.9579 92.8995 26.1923 93.1339C26.4267 93.3683 26.7447 93.5 27.0762 93.5H54.5762C54.9077 93.5 55.2256 93.3683 55.4601 93.1339C55.6945 92.8995 55.8262 92.5815 55.8262 92.25V77.25C55.8262 76.9185 55.6945 76.6005 55.4601 76.3661C55.2256 76.1317 54.9077 76 54.5762 76ZM53.3262 91H28.3262V78.5H53.3262V91Z" fill="#0B3F64"/>
<path d="M25.8262 52.25H55.8262V54.75H25.8262V52.25Z" fill="#0B3F64"/>
<path d="M25.8262 59.75H55.8262V62.25H25.8262V59.75Z" fill="#0B3F64"/>
<path d="M25.8262 67.25H55.8262V69.75H25.8262V67.25Z" fill="#0B3F64"/>
</g>
<defs>
<clipPath id="clip0_11966_788">
<rect width="100" height="100" fill="white" transform="translate(0.326172)"/>
</clipPath>
</defs>
</svg>
