<svg width="81" height="80" viewBox="0 0 81 80" fill="none" xmlns="http://www.w3.org/2000/svg">
<path d="M71.7741 13.3334H9.55187C8.37313 13.3334 7.24266 13.8016 6.40917 14.6351C5.57567 15.4686 5.10742 16.5991 5.10742 17.7778V62.2223C5.10742 63.401 5.57567 64.5315 6.40917 65.365C7.24266 66.1984 8.37313 66.6667 9.55187 66.6667H42.8852L44.1519 65.1111L46.2185 62.5778L46.0185 62.2223H9.55187V17.7778H71.7741V36.8C73.4623 37.8929 74.9631 39.2511 76.2185 40.8223V17.7778C76.2185 16.5991 75.7503 15.4686 74.9168 14.6351C74.0833 13.8016 72.9528 13.3334 71.7741 13.3334Z" fill="#0B3F64"/>
<path d="M16.2188 26.6666H53.9965V30.2222H16.2188V26.6666Z" fill="#0B3F64"/>
<path d="M16.2188 35.5557H40.6632V39.1112H16.2188V35.5557Z" fill="#0B3F64"/>
<path d="M16.2188 51.1112H38.441V54.6668H16.2188V51.1112Z" fill="#0B3F64"/>
<path d="M61.685 38.2888C58.8413 38.2662 56.0569 39.102 53.6958 40.6869C51.3346 42.2719 49.5065 44.5323 48.4503 47.1727C47.3942 49.8131 47.1591 52.7107 47.7758 55.4868C48.3926 58.2629 49.8324 60.7884 51.9072 62.7332L47.5961 67.9999L49.5961 76.0221L57.7295 66.111C60.304 66.8722 63.0438 66.8722 65.6184 66.111L73.7517 76.0221L75.7517 67.9999L71.4406 62.7332C73.5154 60.7884 74.9552 58.2629 75.572 55.4868C76.1887 52.7107 75.9537 49.8131 74.8975 47.1727C73.8413 44.5323 72.0132 42.2719 69.652 40.6869C67.2909 39.102 64.5065 38.2662 61.6628 38.2888H61.685ZM61.685 62.0221C59.7966 61.9958 57.9581 61.4118 56.4007 60.3435C54.8433 59.2753 53.6365 57.7704 52.9319 56.0181C52.2274 54.2659 52.0567 52.3444 52.4412 50.4954C52.8256 48.6464 53.7482 46.9523 55.0928 45.6261C56.4374 44.2999 58.1441 43.4009 59.9983 43.042C61.8525 42.6831 63.7714 42.8804 65.5137 43.6091C67.2561 44.3378 68.7441 45.5653 69.7908 47.1373C70.8374 48.7094 71.3959 50.5557 71.3961 52.4443C71.3727 55.0004 70.3377 57.4431 68.5178 59.238C66.6979 61.0329 64.2411 62.034 61.685 62.0221Z" fill="#0B3F64"/>
</svg>
