<svg width="81" height="79" viewBox="0 0 81 79" fill="none" xmlns="http://www.w3.org/2000/svg">
<g clip-path="url(#clip0_11966_963)">
<path d="M19.6553 52.6666C15.2432 52.6666 11.6553 56.2546 11.6553 60.6666C11.6553 65.0787 15.2432 68.6666 19.6553 68.6666C24.0673 68.6666 27.6553 65.0787 27.6553 60.6666C27.6553 56.2546 24.0671 52.6666 19.6553 52.6666ZM19.6553 65.9999C16.7139 65.9999 14.322 63.6079 14.322 60.6666C14.322 57.7252 16.714 55.3333 19.6553 55.3333C22.5965 55.3333 24.9886 57.7254 24.9886 60.6666C24.9886 63.6079 22.5965 65.9999 19.6553 65.9999Z" fill="#0B3F64"/>
<path d="M64.9888 52.6666C60.5767 52.6666 56.9888 56.2546 56.9888 60.6666C56.9888 65.0787 60.5767 68.6666 64.9888 68.6666C69.4008 68.6666 72.9888 65.0787 72.9888 60.6666C72.9888 56.2546 69.4008 52.6666 64.9888 52.6666ZM64.9888 65.9999C62.0474 65.9999 59.6555 63.6079 59.6555 60.6666C59.6555 57.7252 62.0475 55.3333 64.9888 55.3333C67.9302 55.3333 70.3221 57.7254 70.3221 60.6666C70.3221 63.6079 67.9302 65.9999 64.9888 65.9999Z" fill="#0B3F64"/>
<path d="M80.7765 45.2788L68.7765 26.612C68.5312 26.2306 68.1086 26 67.6551 26H52.9886C52.2512 26 51.6553 26.5973 51.6553 27.3333V60.6666C51.6553 61.4039 52.2512 61.9998 52.9886 61.9998H58.3218V59.3331H54.3218V28.6667H66.9271L78.3218 46.392V59.3334H71.6551V62H79.6551C80.3925 62 80.9884 61.4041 80.9884 60.6667V46C80.9886 45.7453 80.9153 45.4933 80.7765 45.2788Z" fill="#0B3F64"/>
<path d="M59.6553 43.3334V34.0001H70.322V31.3334H58.322C57.5847 31.3334 56.9888 31.9307 56.9888 32.6667V44.6667C56.9888 45.404 57.5847 46 58.322 46H78.322V43.3332H59.6553V43.3334Z" fill="#0B3F64"/>
<path d="M52.9888 16.6669H2.32205C1.58611 16.6669 0.98877 17.2642 0.98877 18.0002V60.6669C0.98877 61.4042 1.58611 62.0002 2.32205 62.0002H12.9888V59.3334H3.65549V19.3334H51.6555V59.3334H26.3221V62.0002H52.9888C53.7261 62.0002 54.3221 61.4042 54.3221 60.6669V18.0002C54.3221 17.2642 53.7261 16.6669 52.9888 16.6669Z" fill="#0B3F64"/>
<path d="M10.3218 54H2.32178V56.6667H10.3218V54Z" fill="#0B3F64"/>
<path d="M51.6555 54H28.9888V56.6667H51.6555V54Z" fill="#0B3F64"/>
<path d="M79.6555 54H74.3223V56.6667H79.6555V54Z" fill="#0B3F64"/>
<path d="M52.989 21.9999H6.32227V24.6666H52.989V21.9999Z" fill="#0B3F64"/>
<path d="M20.989 59.3333H18.3223V62H20.989V59.3333Z" fill="#0B3F64"/>
<path d="M66.3225 59.3333H63.6558V62H66.3225V59.3333Z" fill="#0B3F64"/>
<path d="M24.989 11.3334H6.32227V14.0001H24.989V11.3334Z" fill="#0B3F64"/>
<path d="M3.65549 11.3334H0.98877V14.0001H3.65549V11.3334Z" fill="#0B3F64"/>
</g>
<defs>
<clipPath id="clip0_11966_963">
<rect width="80" height="80" fill="white" transform="translate(0.98877)"/>
</clipPath>
</defs>
</svg>
