<svg width="220" height="218" viewBox="0 0 220 218" fill="none" xmlns="http://www.w3.org/2000/svg">
<path d="M169.736 120.641C170.994 119.382 170.993 117.342 169.734 116.083C168.475 114.826 166.435 114.826 165.177 116.085C164.179 117.084 162.851 117.634 161.437 117.634C160.024 117.634 158.696 117.084 157.698 116.085C156.44 114.826 154.4 114.825 153.141 116.083C151.882 117.342 151.881 119.382 153.139 120.641C155.354 122.858 158.301 124.079 161.437 124.079C164.574 124.079 167.521 122.858 169.736 120.641Z" fill="white"/>
<path d="M152.831 99.192C149.589 96.0644 144.314 96.0648 141.071 99.192C139.79 100.427 139.753 102.468 140.989 103.748C142.225 105.03 144.265 105.066 145.546 103.831C146.307 103.096 147.595 103.096 148.357 103.831C148.982 104.434 149.788 104.734 150.594 104.734C151.438 104.734 152.281 104.404 152.913 103.748C154.149 102.468 154.112 100.428 152.831 99.192Z" fill="white"/>
<path d="M174.518 103.831C175.284 103.093 176.576 103.093 177.342 103.831C177.967 104.434 178.773 104.734 179.578 104.734C180.423 104.734 181.266 104.404 181.898 103.749C183.134 102.468 183.097 100.428 181.816 99.1924C178.571 96.0617 173.289 96.0617 170.044 99.1924C168.763 100.428 168.726 102.468 169.962 103.749C171.197 105.03 173.237 105.066 174.518 103.831Z" fill="white"/>
<path d="M100.952 165.784C102.731 165.784 104.174 164.342 104.174 162.562V160.511C104.174 158.732 102.731 157.289 100.952 157.289C99.1719 157.289 97.729 158.732 97.729 160.511V162.562C97.729 164.342 99.1719 165.784 100.952 165.784Z" fill="white"/>
<path d="M119.208 165.784C120.988 165.784 122.431 164.342 122.431 162.562V160.511C122.431 158.732 120.988 157.289 119.208 157.289C117.429 157.289 115.986 158.732 115.986 160.511V162.562C115.986 164.342 117.429 165.784 119.208 165.784Z" fill="white"/>
<path d="M219.908 196.012L216.054 166.192C215.452 161.513 214.021 157.392 211.791 153.947C210.824 152.451 208.831 152.022 207.335 152.988C205.84 153.955 205.41 155.949 206.377 157.444C208.104 160.113 209.174 163.241 209.66 167.018L213.428 196.176H191.505V182.484C191.505 180.704 190.062 179.261 188.282 179.261C186.503 179.261 185.06 180.704 185.06 182.484V196.176H144.078C140.692 190.877 134.677 188.652 129.267 187.122C129.224 187.109 129.181 187.096 129.143 187.088C128.296 186.847 127.463 186.628 126.664 186.413C126.144 186.275 125.632 186.138 125.134 186C124.549 185.842 124.064 185.051 123.681 184.217C131.536 178.816 137.367 169.634 137.367 161.616V154.35C137.367 151.385 137.057 148.571 136.443 145.928C137.496 145.636 140.301 144.888 140.649 144.798L155.349 154.758C156.891 155.901 158.954 157.177 161.437 157.168C163.904 157.199 165.983 155.901 167.526 154.758L182.229 144.794C182.517 144.876 182.814 144.953 183.106 145.03C187.575 146.216 192.198 147.441 196.314 149.323C197.934 150.058 199.846 149.344 200.585 147.729C201.324 146.109 200.611 144.197 198.991 143.458C194.376 141.352 189.487 140.054 184.76 138.8C184.006 138.598 183.253 138.39 182.501 138.184C180.76 137.71 179.706 135.519 178.981 133.664C190.535 126.177 199.24 112.868 199.24 101.305V76.0572C199.24 63.0901 189.431 51.3725 174.25 46.2055C167.889 44.0399 161.15 43.3219 155.279 44.183C149.152 45.0815 144.122 47.6115 140.639 51.5294C133.532 52.6448 123.205 58.1491 123.556 80.7705C123.56 80.987 123.563 101.305 123.563 101.305C123.563 112.863 132.301 126.179 143.897 133.672C143.171 135.529 142.116 137.709 140.375 138.185C140.292 138.208 140.212 138.236 140.133 138.264C139.411 138.457 135.576 139.479 134.36 139.819C133.01 136.931 131.219 134.349 129.001 132.127C124.107 127.212 117.516 124.44 110.448 124.324H110.345C103.272 124.44 96.6812 127.212 91.7828 132.127C89.2089 134.71 87.2152 137.786 85.8144 141.258C83.2406 140.386 77.0445 138.693 77.0445 138.693C75.2785 138.212 74.2257 135.93 73.5039 134.061C82.1019 127.517 88.3191 117.252 88.3191 108.233V99.3897C88.3191 97.6967 87.0085 96.2916 85.3198 96.1713C80.5761 95.8405 78.7929 94.0143 76.9023 92.085C74.8398 89.9795 72.0167 87.0963 66.255 88.5873C64.7511 88.9741 63.4707 89.3135 62.3664 89.61C59.148 90.4694 57.5324 90.8991 56.1961 90.8991C54.8554 90.8991 53.2398 90.4694 50.0214 89.61C48.9171 89.3135 47.641 88.9741 46.1371 88.5873C40.3621 87.1006 37.539 89.9838 35.4769 92.0893C33.5863 94.0186 31.8031 95.8405 27.068 96.1713C25.3793 96.2916 24.073 97.6967 24.073 99.3897V108.233C24.073 117.247 30.2863 127.517 38.8839 134.061C38.1664 135.934 37.1136 138.212 35.3433 138.693L34.441 138.942C27.0589 140.949 19.093 143.119 13.2836 148.769C11.8914 148.317 7.19062 147.299 6.73085 147.187C6.9457 146.723 7.32812 146.027 7.99413 145.043C15.1742 134.443 18.1043 119.047 18.1043 91.9007C18.1043 77.5839 24.2617 68.0448 30.2339 67.0909C30.3241 67.078 30.4144 67.0652 30.5003 67.0523C31.3726 66.932 33.4222 66.6484 34.5523 64.4784C38.4839 56.9116 49.7456 52.6839 61.9444 54.1921C74.1686 55.7046 88.7049 63.5207 92.8295 80.9183C93.5557 84.0163 94.0068 87.4066 94.2861 91.905C94.2861 99.1538 94.415 107.678 95.3346 116.023C95.5322 117.793 97.1221 119.069 98.8924 118.872C100.663 118.678 101.939 117.084 101.741 115.318C100.852 107.244 100.731 98.9003 100.731 91.8061C100.731 91.7417 100.727 91.6729 100.723 91.6085C100.422 86.6842 99.9236 82.9331 99.1029 79.4401C94.2131 58.8199 77.112 49.5734 62.735 47.7945C48.0831 45.9812 34.7757 51.159 29.2632 60.7191C29.2418 60.7234 29.2203 60.7277 29.1988 60.732C19.0324 62.3562 11.6594 75.4655 11.6594 91.9007C11.6594 117.643 9.05117 131.99 2.66171 141.425C0.882806 144.051 -0.780085 147.114 0.388665 149.954C1.54023 152.756 4.52226 153.345 6.91992 153.813L7.37968 153.908C7.96835 154.024 8.52265 154.144 9.05117 154.273C7.2164 157.504 5.87578 161.492 5.23554 166.471L1.42851 196.033C1.25663 197.373 1.17929 199.333 2.5457 200.884C4.06679 202.62 6.40859 202.62 7.29374 202.62H74.3108C74.1132 203.819 74.0057 205.116 74.0057 206.517V212.791C74.0057 215.622 76.3089 217.93 79.1448 217.93H141.633C144.469 217.93 146.772 215.622 146.772 212.791V206.517C146.772 205.116 146.669 203.819 146.467 202.62H214.008C215.521 202.62 217.429 202.422 218.782 200.88C220.153 199.325 220.08 197.357 219.908 196.012ZM163.856 149.46C163.818 149.486 163.779 149.512 163.74 149.542C162.426 150.517 161.785 150.724 161.48 150.724H161.437C161.42 150.724 161.407 150.728 161.394 150.724C161.089 150.724 160.449 150.517 159.134 149.542C159.095 149.512 159.061 149.486 159.018 149.46L146.928 141.266C148.155 139.843 148.994 138.203 149.599 136.762C150.279 137.063 150.964 137.349 151.655 137.606C155.238 138.935 158.349 139.554 161.443 139.554C164.543 139.554 167.651 138.934 171.22 137.606C171.912 137.349 172.598 137.061 173.28 136.76C173.884 138.199 174.722 139.84 175.949 141.264L163.856 149.46ZM142.586 57.7809C143.483 57.7014 144.306 57.2507 144.856 56.537C148.305 52.0575 154.104 50.2678 160.25 50.2678C164.263 50.2678 168.424 51.0309 172.173 52.3071C181.686 55.5448 192.795 63.708 192.795 76.0572V89.3105H189.726C184.585 89.3105 181.375 86.2993 177.31 82.4871C172.408 77.889 166.851 72.6769 156.922 72.6769H145.963C137.239 72.6769 135.803 79.6919 134.853 84.3339C133.842 89.2693 133.14 91.3008 130.008 91.7477C130.008 91.7477 130.005 80.9277 130.001 80.6699C129.846 70.7497 131.904 58.7258 142.586 57.7809ZM130.008 101.305V98.2209C138.739 97.4617 140.191 90.3942 141.167 85.6268C142.246 80.355 142.818 79.1226 145.963 79.1226H156.922C164.301 79.1226 168.478 83.0405 172.9 87.1887C177.182 91.2046 182.035 95.7562 189.725 95.7562H192.794V101.305C192.794 112.716 181.665 126.856 168.974 131.565C166.144 132.618 163.751 133.109 161.443 133.109C159.138 133.109 156.739 132.618 153.897 131.563C141.171 126.841 130.008 112.702 130.008 101.305ZM91.1851 145.383C94.3261 135.591 102.589 130.92 110.396 130.77C117.172 130.899 124.296 134.435 128.107 141.765C129.04 143.561 129.779 145.581 130.26 147.837C130.428 148.606 130.565 149.405 130.668 150.23C129.753 149.774 129.07 149.186 128.412 148.533C128.219 148.344 128.026 148.15 127.828 147.948C126.444 146.539 124.674 144.73 121.619 144.571C120.278 144.49 118.948 144.767 117.659 145.111C116.368 145.454 115.086 145.83 113.793 146.167C112.419 146.526 111.01 146.933 109.577 146.742C107.53 146.469 105.515 145.772 103.523 145.247C101.383 144.683 99.237 144.219 97.08 144.975C95.4278 145.555 94.1568 146.724 92.9545 147.953C92.0952 148.829 91.3002 149.641 90.1229 150.23C90.2527 149.19 90.504 147.409 91.1851 145.383ZM89.8702 157.113C93.948 156.142 96.0706 153.985 97.5616 152.46C98.0437 151.966 98.6075 151.217 99.3113 151.03C100.028 150.84 100.916 151.224 101.594 151.403C103.533 151.914 105.463 152.489 107.426 152.901C109.015 153.234 110.605 153.34 112.217 153.106C114.096 152.834 115.932 152.267 117.763 151.781C118.338 151.628 118.914 151.476 119.489 151.325C119.992 151.193 120.519 151.007 121.042 150.99C121.969 150.959 122.637 151.86 123.221 152.459C124.717 153.98 126.839 156.142 130.921 157.113V161.616C130.921 168.95 123.436 178.407 115.212 181.454C113.756 181.995 112.475 182.313 111.225 182.408C109.416 182.554 107.671 182.236 105.562 181.45C105.334 181.364 105.11 181.278 104.883 181.183C96.942 177.888 89.8698 168.753 89.8698 161.616V157.113H89.8702ZM120.816 190.903L111.977 196.093C111.939 196.119 111.896 196.141 111.857 196.166C111.853 196.171 111.848 196.171 111.844 196.175C110.422 197.095 110.362 197.095 108.914 196.162C108.875 196.141 108.841 196.119 108.802 196.093L103.371 192.905L99.9632 190.907C101.278 189.88 102.159 188.522 102.773 187.276C102.954 187.349 103.134 187.427 103.319 187.495C103.56 187.586 103.8 187.672 104.037 187.753C106.267 188.514 108.325 188.896 110.387 188.896H110.392C112.669 188.896 114.946 188.428 117.456 187.495C117.641 187.427 117.821 187.349 118.006 187.276C118.62 188.522 119.501 189.88 120.816 190.903ZM30.5188 108.233V102.196C35.6535 101.122 38.2618 98.4577 40.0793 96.5971C41.9227 94.7151 42.3653 94.2682 44.5309 94.8311C46.0133 95.2093 47.2723 95.5444 48.3637 95.8366C52.0075 96.8077 54.0141 97.3448 56.1969 97.3448C58.3797 97.3448 60.3864 96.8077 64.0301 95.8366C65.1172 95.5444 66.3762 95.2093 67.8629 94.8268C70.02 94.2725 70.4582 94.7151 72.2973 96.5971C74.1192 98.4534 76.7317 101.122 81.8746 102.196V108.233C81.8746 117.57 72.7313 129.158 62.3114 133.03C60.0039 133.889 58.0575 134.285 56.1969 134.285C54.3235 134.285 52.377 133.889 50.0696 133.034C39.6539 129.158 30.5188 117.57 30.5188 108.233ZM70.5004 141.769L58.534 149.873C58.4953 149.899 58.4566 149.929 58.418 149.955C56.3426 151.502 56.0504 151.502 53.975 149.955C53.9363 149.929 53.8977 149.899 53.8547 149.873L41.8926 141.769C43.0313 140.442 43.8262 138.929 44.4149 137.563C45.5321 138.138 46.6707 138.646 47.8266 139.075C50.8774 140.205 53.5371 140.729 56.1969 140.729C58.8481 140.729 61.5036 140.205 64.5543 139.075C65.7145 138.641 66.8532 138.134 67.9746 137.563C68.5625 138.925 69.3574 140.442 70.5004 141.769ZM76.7093 196.175H33.2215V182.481C33.2215 180.702 31.7778 179.259 29.9989 179.259C28.22 179.259 26.7762 180.702 26.7762 182.481V196.175H7.90949L11.6306 167.292C12.3439 161.762 13.9896 157.822 16.3528 154.887C16.5333 154.724 16.688 154.539 16.8298 154.333C21.2341 149.306 27.9067 147.402 35.611 145.301L50.1856 155.171C52.3469 156.769 54.2719 157.564 56.1969 157.564C58.1219 157.564 60.0469 156.769 62.2082 155.171L76.7785 145.301C79.3051 145.993 81.7285 146.663 84.0359 147.458C83.6363 149.649 83.4258 151.948 83.4258 154.35V161.616C83.4258 169.638 89.2523 178.816 97.098 184.217C96.7156 185.051 96.2343 185.837 95.6543 186C95.1429 186.138 94.6273 186.275 94.1074 186.417C93.3082 186.628 92.4875 186.847 91.6453 187.083C91.5937 187.101 91.5379 187.113 91.4863 187.131C86.0847 188.66 80.091 190.894 76.7093 196.175ZM140.328 211.484H80.4519V206.517C80.4519 198.667 84.7402 195.939 92.0058 193.709L103.976 200.738C104.574 201.482 105.498 202.118 106.898 202.423C108.114 203.016 109.257 203.312 110.396 203.312C111.397 203.312 112.403 203.08 113.455 202.62C114.053 202.363 114.663 202.027 115.294 201.619L124.567 196.175L128.782 193.7C131.158 194.418 133.221 195.187 134.914 196.175C137.436 197.64 139.151 199.595 139.903 202.62C140.182 203.759 140.328 205.048 140.328 206.518V211.484H140.328Z" fill="white"/>
<path d="M50.2788 125.579C51.9958 127.297 54.2766 128.244 56.7026 128.244H56.7146C59.1389 128.241 61.4154 127.292 63.1239 125.573C64.3781 124.311 64.3721 122.27 63.1097 121.015C61.8468 119.761 59.8067 119.767 58.5524 121.03C58.0604 121.525 57.4047 121.798 56.706 121.799C56.7048 121.799 56.7039 121.799 56.7026 121.799C55.9996 121.799 55.3375 121.523 54.8382 121.023C53.5801 119.764 51.5399 119.764 50.2809 121.021C49.0219 122.279 49.0207 124.32 50.2788 125.579Z" fill="white"/>
<path d="M41.7087 109.285C42.3726 108.642 43.4936 108.642 44.1575 109.285C44.7835 109.892 45.5918 110.193 46.3996 110.193C47.2414 110.193 48.0823 109.865 48.7143 109.213C49.9531 107.935 49.9209 105.895 48.643 104.656C45.4947 101.606 40.3719 101.606 37.2236 104.656C35.9453 105.895 35.9135 107.935 37.1523 109.213C38.3907 110.492 40.4304 110.524 41.7087 109.285Z" fill="white"/>
<path d="M69.2512 109.285C69.9134 108.643 71.0263 108.64 71.6807 109.278C72.3072 109.889 73.1193 110.193 73.9305 110.193C74.7689 110.193 75.6063 109.868 76.238 109.22C77.4806 107.946 77.4548 105.906 76.1808 104.663C73.0419 101.602 67.9214 101.599 64.7662 104.656C63.4878 105.895 63.456 107.935 64.6944 109.213C65.9328 110.492 67.9729 110.524 69.2512 109.285Z" fill="white"/>
<path d="M80.0869 34.0746L102.101 55.9126C102.19 56.0015 102.285 56.0844 102.384 56.1622L102.632 56.3569C103.553 57.0839 104.507 57.8358 105.952 57.8771C105.982 57.878 106.013 57.8784 106.044 57.8784C106.076 57.8784 106.107 57.878 106.139 57.8771C107.57 57.835 108.52 57.0856 109.438 56.3612L109.692 56.1622C109.79 56.0844 109.885 56.0011 109.974 55.9126L131.988 34.0746C132.005 34.0578 132.022 34.041 132.038 34.0239C139.752 26.0304 139.753 13.0134 132.037 5.00362C125.422 -1.84732 114.299 -1.5199 106.044 5.71561C97.7746 -1.51732 86.6483 -1.84345 80.0354 5.0062C72.3221 13.013 72.3229 26.0299 80.0375 34.0234C80.0539 34.041 80.0706 34.0578 80.0869 34.0746ZM84.6747 9.48096C89.4799 4.50389 97.1863 6.416 101.988 10.7335C102.312 11.0278 102.573 11.2775 102.789 11.4829C103.606 12.2628 104.532 13.1466 106.044 13.1466C107.549 13.1466 108.452 12.2855 109.249 11.5254C109.47 11.3149 109.742 11.0549 110.092 10.7408C114.895 6.41428 122.593 4.50217 127.398 9.47838C132.727 15.0097 132.735 23.9949 127.423 29.525L106.037 50.7396L84.6519 29.525C79.3397 23.9949 79.3487 15.0093 84.6747 9.48096Z" fill="white"/>
</svg>
